<svg viewBox="0 0 512 512" fill="none" xmlns="http://www.w3.org/2000/svg" xmlns:xlink="http://www.w3.org/1999/xlink" x="0" y="0"><defs><filter id="filter7_d_1_914" x="-29.000999999999976" y="-49.552700000000016" width="563" height="589.553" filterUnits="userSpaceOnUse" color-interpolation-filters="sRGB">
<feFlood flood-opacity="0" result="BackgroundImageFix"/>
<feColorMatrix in="SourceAlpha" type="matrix" values="0 0 0 0 0 0 0 0 0 0 0 0 0 0 0 0 0 0 127 0" result="hardAlpha"/>
<feOffset dx="-9" dy="10"/>
<feComposite in2="hardAlpha" operator="out"/>
<feColorMatrix type="matrix" values="0 0 0 0 0 0 0 0 0 0 0 0 0 0 0 0 0 0 0.44 0"/>
<feBlend mode="normal" in2="BackgroundImageFix" result="effect1_dropShadow_1_914"/>
<feBlend mode="normal" in="SourceGraphic" in2="effect1_dropShadow_1_914" result="shape"/>
</filter><filter id="filter8_d_1_914" x="-20" y="86.00029999999998" width="94.0112" height="96.0111" filterUnits="userSpaceOnUse" color-interpolation-filters="sRGB">
<feFlood flood-opacity="0" result="BackgroundImageFix"/>
<feColorMatrix in="SourceAlpha" type="matrix" values="0 0 0 0 0 0 0 0 0 0 0 0 0 0 0 0 0 0 127 0" result="hardAlpha"/>
<feOffset dx="2" dy="4"/>
<feComposite in2="hardAlpha" operator="out"/>
<feColorMatrix type="matrix" values="0 0 0 0 0 0 0 0 0 0 0 0 0 0 0 0 0 0 1 0"/>
<feBlend mode="normal" in2="BackgroundImageFix" result="effect1_dropShadow_1_914"/>
<feBlend mode="normal" in="SourceGraphic" in2="effect1_dropShadow_1_914" result="shape"/>
</filter><filter id="filter9_d_1_914" x="368" y="383.1483" width="151" height="135.448" filterUnits="userSpaceOnUse" color-interpolation-filters="sRGB">
<feFlood flood-opacity="0" result="BackgroundImageFix"/>
<feColorMatrix in="SourceAlpha" type="matrix" values="0 0 0 0 0 0 0 0 0 0 0 0 0 0 0 0 0 0 127 0" result="hardAlpha"/>
<feOffset dy="7.76457"/>
<feComposite in2="hardAlpha" operator="out"/>
<feColorMatrix type="matrix" values="0 0 0 0 0.745098 0 0 0 0 0.74902 0 0 0 0 0.705882 0 0 0 1 0"/>
<feBlend mode="normal" in2="BackgroundImageFix" result="effect1_dropShadow_1_914"/>
<feBlend mode="normal" in="SourceGraphic" in2="effect1_dropShadow_1_914" result="shape"/>
</filter></defs><g id="Shape/Rectangle/Size7" filter="url(#filter7_d_1_914)">
<rect id="Fill" x="0" y="0.00029999999998153726" width="512" height="512" fill="white"/>
<g id="Border">
<path id="Vector_13" d="M1.232,-12.9997c0,57.052 0.608,79.98 0.608,140.655M1.84,127.6553c0,60.675 -0.094,171.262 -0.608,245.587c-0.514,74.325 -0.912,146.666 -0.912,146.666c0,10.5 -1.125,-1.89 -1.043,-7.47c0.103,-6.984 1.086,-205.642 1.086,-222.985c0,-17.342 0.869,-105.624 1.477,-161.798z" stroke="black" stroke-width="6" stroke-miterlimit="10" stroke-linecap="round" stroke-linejoin="round"/>
<path id="Vector_14" d="M426.79,511.7283c83.45,0 71.79,0 99.21,0c-0.47,0.28 -4.72,1.32 -6.48,1.53c-2.19,0.27 -59.72,0.12 -72,0.12c-42.03,0 -231.89,-0.99 -244.32,-0.99M426.79,511.7283c0,0 -201.26,1.65 -233.36,1.65c-32.09,0 -24.5,0.05 -92.267,0c-50.663,-0.03 -111.243,0 -115.32,0c-4.076,0 -2.572,-1.98 -2.572,-1.98c28.496,0.99 78.088,0.99 143.221,0.99c22.444,0 48.698,0 76.708,0M426.79,511.7283c-61,0 -147.45,0.66 -223.59,0.66" stroke="black" stroke-width="6" stroke-miterlimit="10" stroke-linecap="round" stroke-linejoin="round"/>
<path id="Vector_15" d="M511.45,257.6723c0,66.394 1.35,108.168 1.35,151.579c0,43.412 -0.69,116.957 -0.69,116.957c0,0 -1.59,3.1 -1.59,-2.96c0,-6.05 1.04,-49.108 0.93,-110.982c-0.11,-61.874 -0.11,-126.71 0,-154.594zM511.45,257.6723c0,-31.299 -0.73,-95.232 -0.68,-130.808c0.04,-39.894 0,-97.343 0,-135.864" stroke="black" stroke-width="6" stroke-miterlimit="10" stroke-linecap="round" stroke-linejoin="round"/>
<path id="Vector_16" d="M-6,0.8623c29.219,0 54.713,0 69.744,0M63.744,0.8623c15.031,0 81.769,0.291 110.026,0.291M63.744,0.8623c0,0 32.596,-0.908 51.707,-0.908c19.111,0 58.319,1.199 58.319,1.199M531,1.1533c-29.91,0 -16.08,-0.291 -45.78,-0.291c-16.94,0 -37.65,0.486 -67.34,0.291M253.31,-0.0457c20.55,0.028 127.97,0.96 164.57,1.199M253.31,-0.0457c-21.25,-0.029 -51.28,1.199 -79.54,1.199M253.31,-0.0457c0,0 51.53,0 80.39,0M417.88,1.1533c0,0 -55.32,-1.199 -84.18,-1.199M173.77,1.1533c17.32,0 57.48,0 79.54,0c22.07,0 62.79,-0.799 80.39,-1.199" stroke="black" stroke-width="6" stroke-miterlimit="10" stroke-linecap="round" stroke-linejoin="round"/>
</g>
<rect id="Rectangle 6" x="48" y="56.00029999999998" width="416" height="400" fill="#494848" fill-opacity="0.19" stroke="black" stroke-width="4"/>
<g id="3_2" filter="url(#filter8_d_1_914)">
<rect id="Bg" x="-19" y="87.00029999999998" width="90.0111" height="90.0111" rx="45.0056" fill="#FFDC58" stroke="black" stroke-width="2"/>
<g id="Icon">
<path id="Fill 1" fill-rule="evenodd" clip-rule="evenodd" d="M24.798,159.5653c-0.001,-0.009 -0.008,-0.016 -0.017,-0.016c-1.171,-0.03 -2.369,-0.144 -3.548,-0.474c-0.431,-0.121 -0.871,-0.24 -1.285,-0.44c-0.729,-0.347 -1.407,-0.843 -1.94,-1.46c-0.269,-0.312 -0.5,-0.626 -0.706,-0.997c-0.217,-0.371 -0.343,-0.802 -0.393,-1.234c-0.051,-0.385 -0.01,-0.781 0.084,-1.154c0.103,-0.375 0.286,-0.716 0.499,-1.029c0.573,-0.785 1.543,-1.256 2.449,-1.17c0.284,0.018 0.244,0.165 0.061,0.388c-0.194,0.197 -0.457,0.598 -0.748,0.818c-0.281,0.191 -0.443,0.477 -0.624,0.694c-0.167,0.237 -0.275,0.497 -0.322,0.761c-0.072,0.26 -0.085,0.539 -0.03,0.83c0.058,0.289 0.201,0.577 0.396,0.917c0.238,0.377 0.565,0.705 0.942,0.973c0.385,0.261 0.813,0.464 1.255,0.641c0.978,0.387 2.077,0.557 3.187,0.627c0.686,0.039 1.382,0.049 2.067,0.01c1.041,-0.061 2.089,-0.19 3.075,-0.496c0.772,-0.215 1.487,-0.545 2.169,-0.92c0.152,-0.082 0.293,-0.173 0.441,-0.26c0.549,-0.326 0.756,-0.385 1.006,-0.296c0.055,0.02 0.12,0.031 0.164,0.057c0.141,0.07 0.037,0.386 -0.343,0.747c-0.566,0.526 -1.228,0.992 -1.948,1.366c-0.36,0.184 -0.731,0.363 -1.116,0.5c-0.389,0.122 -0.786,0.226 -1.186,0.306c-1.18,0.249 -2.387,0.329 -3.572,0.327c-0.009,0 -0.017,-0.007 -0.017,-0.016z" fill="#231F20"/>
<path id="Fill 3" fill-rule="evenodd" clip-rule="evenodd" d="M28.006,160.0073c-0.002,-0.005 -0.006,-0.007 -0.011,-0.006c-0.635,0.168 -1.28,0.288 -1.928,0.387c-0.239,0.032 -0.474,0.064 -0.714,0.096c-0.845,0.061 -1.695,0.042 -2.534,-0.075c-0.373,-0.049 -0.744,-0.115 -1.111,-0.193c-0.465,-0.118 -0.954,-0.237 -1.35,-0.543c-0.127,-0.089 -0.027,-0.204 0.152,-0.275c0.184,-0.074 0.42,-0.092 0.656,-0.017c0.826,0.31 1.731,0.449 2.659,0.53c0.559,0.043 1.142,-0.019 1.71,-0.101c0.628,-0.072 1.251,-0.201 1.868,-0.355c0.381,-0.091 0.754,-0.216 1.129,-0.331l0.843,-0.299c0.275,-0.112 0.549,-0.231 0.818,-0.354c0.413,-0.203 0.797,-0.445 1.197,-0.659l0.258,-0.151c0.329,-0.179 0.46,-0.192 0.588,-0.138c0.029,0.013 0.063,0.021 0.085,0.038c0.074,0.051 -0.018,0.194 -0.233,0.382c-0.632,0.563 -1.395,1.027 -2.209,1.389c-0.594,0.285 -1.223,0.505 -1.862,0.681c-0.005,0.001 -0.009,-0.001 -0.011,-0.006z" fill="#231F20"/>
<path id="Fill 5" fill-rule="evenodd" clip-rule="evenodd" d="M29.237,164.0023c0.005,0.004 0.012,0.004 0.017,0c0.198,-0.172 0.369,-0.414 0.525,-0.667c0.061,-0.092 0.083,-0.208 0.141,-0.305c0.195,-0.352 0.367,-0.733 0.538,-1.128c0.082,-0.171 0.142,-0.355 0.209,-0.537c0.091,-0.232 0.149,-0.496 0.41,-0.685c0.075,-0.059 0.161,0.058 0.239,0.2c0.075,0.15 0.165,0.274 0.142,0.394c-0.113,0.39 -0.163,0.894 -0.443,1.332c-0.152,0.266 -0.214,0.582 -0.349,0.873c-0.144,0.321 -0.337,0.63 -0.552,0.923c-0.156,0.169 -0.292,0.349 -0.481,0.49c-0.135,0.11 -0.28,0.207 -0.434,0.289l-0.003,0.002c-0.149,0.096 -0.317,0.144 -0.48,0.206c-0.125,0.058 -0.25,0.097 -0.38,0.133c-0.127,0.033 -0.262,0.094 -0.393,0.105c-0.058,0.007 -0.115,0.009 -0.174,0.004c-0.219,-0.028 -0.283,-0.094 -0.299,-0.313c-0.004,-0.047 -0.011,-0.092 -0.011,-0.134c0.001,-0.133 0.099,-0.301 0.226,-0.361c0.389,-0.193 0.678,-0.256 0.961,-0.394c0.186,-0.122 0.399,-0.224 0.574,-0.425c0.004,-0.005 0.012,-0.006 0.017,-0.002z" fill="#231F20"/>
<path id="Fill 7" fill-rule="evenodd" clip-rule="evenodd" d="M19.462,153.0463c-0.005,-0.007 -0.015,-0.01 -0.023,-0.007c-0.153,0.063 -0.332,0.134 -0.487,0.254c-0.057,0.045 -0.092,0.11 -0.149,0.156c-0.209,0.164 -0.414,0.355 -0.566,0.582c-0.056,0.099 -0.091,0.217 -0.084,0.319c-0.004,0.146 0.048,0.225 -0.06,0.337c-0.038,0.038 -0.278,0.151 -0.546,0.179c-0.259,0.044 -0.597,-0.08 -0.624,-0.252c-0.07,-0.307 -0.01,-0.575 0.084,-0.799c0.091,-0.23 0.231,-0.418 0.4,-0.577c0.207,-0.182 0.298,-0.433 0.479,-0.626c0.2,-0.208 0.421,-0.394 0.673,-0.546c0.148,-0.099 0.324,-0.166 0.489,-0.24c0.26,-0.108 0.544,-0.156 0.825,-0.177c0.003,0 0.007,-0.001 0.01,-0.001c0.114,-0.002 0.23,-0.029 0.349,-0.034c0.116,0.006 0.239,0.012 0.361,0.032c0.056,0.004 0.097,0.034 0.142,0.062c0.155,0.123 0.159,0.231 0.048,0.453c-0.026,0.051 -0.049,0.101 -0.078,0.148c-0.096,0.156 -0.239,0.266 -0.351,0.326c-0.345,0.195 -0.363,0.252 -0.509,0.286c-0.092,0.021 -0.223,0.061 -0.358,0.131c-0.009,0.005 -0.02,0.002 -0.025,-0.006z" fill="#231F20"/>
<path id="Fill 9" fill-rule="evenodd" clip-rule="evenodd" d="M8.784,142.5923c0.003,-0.004 0.003,-0.009 0,-0.013c-1.487,-1.725 -2.827,-3.594 -3.899,-5.618c-0.207,-0.364 -0.387,-0.742 -0.563,-1.122c-0.188,-0.375 -0.356,-0.757 -0.5,-1.151c-1.096,-2.742 -1.545,-5.735 -1.326,-8.662c0.036,-0.65 0.144,-1.296 0.222,-1.942c0.14,-0.635 0.217,-1.284 0.401,-1.903c0.366,-1.61 0.991,-3.21 1.96,-4.562c0.305,-0.419 0.332,-0.311 0.184,0.105c-0.154,0.416 -0.412,1.168 -0.756,2.023c-0.151,0.38 -0.285,0.767 -0.405,1.157c-0.122,0.389 -0.204,0.798 -0.319,1.192c-0.114,0.397 -0.216,0.795 -0.283,1.202c-0.071,0.405 -0.178,0.805 -0.221,1.215c-0.26,1.627 -0.279,3.288 -0.121,4.939c0.189,1.98 0.806,3.988 1.666,5.833c0.936,2.037 2.134,3.961 3.544,5.726c0.856,1.095 1.781,2.139 2.755,3.135c1.468,1.517 3.043,2.947 4.648,4.301c1.249,1.054 2.52,2.03 3.776,3.054c0.275,0.228 0.553,0.44 0.821,0.682c1.006,0.883 1.277,1.226 1.377,1.533c0.023,0.069 0.063,0.151 0.069,0.198c0.016,0.162 -0.433,-0.149 -1.183,-0.76c-2.242,-1.795 -4.668,-3.654 -6.975,-5.692c-1.708,-1.514 -3.366,-3.115 -4.872,-4.857c-0.003,-0.004 -0.003,-0.009 0,-0.013z" fill="#231F20"/>
<path id="Fill 11" fill-rule="evenodd" clip-rule="evenodd" d="M5.808,116.4393c0.01,0.005 0.022,0.002 0.029,-0.007c0.976,-1.302 2.124,-2.447 3.377,-3.452c1.287,-0.968 2.665,-1.803 4.12,-2.471c2.921,-1.298 6.109,-2.006 9.32,-1.905c1.171,0.036 2.34,0.171 3.47,0.396c0.569,0.112 1.137,0.248 1.7,0.414c0.562,0.162 1.112,0.401 1.666,0.604c1.917,0.838 3.623,2.129 4.983,3.687c1.367,1.558 2.397,3.372 3.103,5.281c1.435,3.823 1.71,7.972 1.176,11.936c-0.214,1.766 -0.59,3.509 -1.053,5.218c-0.449,1.716 -1.037,3.383 -1.663,5.02c-0.806,2.104 -1.774,4.147 -2.852,6.124c-1.07,1.983 -2.286,3.882 -3.606,5.694c-0.828,1.129 -0.869,0.866 -0.401,-0.235c0.239,-0.547 0.578,-1.32 1.01,-2.232c0.416,-0.922 0.932,-1.978 1.522,-3.104c1.05,-1.995 1.95,-4.058 2.811,-6.127c0.843,-2.078 1.563,-4.203 2.106,-6.369c1.097,-4.321 1.436,-8.861 0.391,-13.194c-0.318,-1.288 -0.765,-2.556 -1.354,-3.763c-0.592,-1.205 -1.359,-2.325 -2.254,-3.323c-0.897,-0.994 -1.934,-1.872 -3.104,-2.521c-1.169,-0.65 -2.411,-1.148 -3.734,-1.455c-5.788,-1.448 -12.24,0.058 -16.876,3.864c-1.416,1.172 -2.648,2.575 -3.552,4.168c-0.203,0.41 -0.42,0.814 -0.614,1.228l-0.475,1.285c-0.238,0.896 -0.485,1.792 -0.606,2.712l-0.086,0.519l-0.044,0.525l-0.083,1.05l0.007,1.054l0.006,0.526l0.049,0.526c0.084,1.406 0.408,2.788 0.807,4.139c0.408,1.353 0.997,2.645 1.637,3.905c0.67,1.247 1.43,2.444 2.256,3.591c2.598,3.561 5.796,6.52 9.075,9.416c0.725,0.638 1.447,1.248 2.169,1.912c2.681,2.434 3.41,3.503 3.55,4.368c0.03,0.198 0.063,0.446 0.047,0.559c-0.016,0.097 -0.077,0.088 -0.182,0c-0.109,-0.088 -0.223,-0.259 -0.455,-0.479c-0.428,-0.446 -1.137,-1.141 -2.12,-2.004c-2.946,-2.528 -6.115,-5.1 -9.014,-8.074c-2.894,-2.965 -5.602,-6.336 -7.382,-10.298c-0.663,-1.464 -1.16,-3.014 -1.504,-4.601c-0.352,-1.59 -0.441,-3.234 -0.391,-4.863c0.061,-1.634 0.385,-3.239 0.809,-4.805c0.491,-1.586 1.237,-3.082 2.18,-4.431c0.006,-0.009 0.019,-0.012 0.029,-0.008z" fill="#231F20"/>
<path id="Fill 13" fill-rule="evenodd" clip-rule="evenodd" d="M21.9,158.5343c-0.001,0.009 0.006,0.017 0.015,0.019c1.58,0.287 3.259,0.239 4.906,-0.03c0.599,-0.105 1.206,-0.271 1.786,-0.399c0.977,-0.253 1.972,-0.718 2.881,-1.257c0.906,-0.548 1.752,-1.218 2.341,-2.033c0.497,-0.735 0.613,-1.616 0.172,-2.338c-0.274,-0.458 -0.734,-0.836 -1.23,-1.146c-0.507,-0.299 -1.047,-0.57 -1.621,-0.775c-0.357,-0.12 -0.304,-0.237 0.064,-0.341c0.354,-0.081 1.083,-0.195 1.826,0.136c0.649,0.29 1.287,0.683 1.804,1.315c0.132,0.151 0.238,0.325 0.329,0.509c0.194,0.392 0.318,0.818 0.353,1.254c0.005,0.216 -0.032,0.43 -0.054,0.645c-0.165,0.84 -0.602,1.507 -1.075,2.06c-0.478,0.56 -1.04,0.982 -1.618,1.363c-0.694,0.45 -1.413,0.856 -2.166,1.218c-0.377,0.18 -0.763,0.346 -1.164,0.49c-0.199,0.075 -0.414,0.13 -0.619,0.194l-0.599,0.131c-1.745,0.388 -3.555,0.591 -5.365,0.439c-1.112,-0.097 -2.219,-0.331 -3.273,-0.738c-0.795,-0.318 -1.546,-0.768 -2.206,-1.339c-0.651,-0.581 -1.183,-1.33 -1.446,-2.199c-0.19,-0.673 -0.219,-1.43 0.011,-2.118c0.236,-0.685 0.678,-1.275 1.205,-1.728c0.233,-0.201 0.468,-0.385 0.732,-0.539c0.488,-0.288 0.854,-0.373 1.111,-0.405c0.263,-0.021 0.432,0.039 0.583,0.164c0.07,0.055 0.152,0.104 0.196,0.163c0.151,0.202 -0.199,0.493 -0.776,0.857c-0.858,0.528 -1.58,1.26 -1.777,2.041c-0.119,0.389 -0.098,0.773 -0.006,1.179c0.11,0.406 0.349,0.802 0.64,1.171c0.922,1.09 2.45,1.746 4.025,2.017c0.01,0.002 0.016,0.01 0.015,0.02z" fill="#231F20"/>
<path id="Fill 15" fill-rule="evenodd" clip-rule="evenodd" d="M20.244,155.5943c-0.003,0.008 0.001,0.016 0.008,0.02c0.876,0.364 1.849,0.603 2.844,0.72c0.365,0.045 0.735,0.039 1.104,0.053c1.302,0.057 2.633,-0.039 3.908,-0.364c0.564,-0.146 1.118,-0.345 1.626,-0.607c0.654,-0.341 1.223,-0.783 1.727,-1.273c0.161,-0.153 0.28,-0.066 0.303,0.204c0.036,0.274 -0.077,0.751 -0.449,1.089c-1.319,1.149 -2.952,1.684 -4.577,1.843c-0.974,0.093 -1.978,0.242 -2.979,0.213c-1.098,-0.033 -2.201,-0.176 -3.264,-0.518c-0.652,-0.21 -1.29,-0.491 -1.878,-0.871c-0.444,-0.29 -0.858,-0.642 -1.198,-1.066c-0.16,-0.221 -0.319,-0.441 -0.438,-0.688c-0.136,-0.221 -0.236,-0.574 -0.23,-0.874c0.007,-0.486 0.193,-0.918 0.431,-1.279c0.242,-0.362 0.546,-0.668 0.896,-0.916c0.151,-0.113 0.309,-0.214 0.483,-0.299c0.664,-0.295 0.968,-0.181 1.117,0.082c0.035,0.061 0.077,0.119 0.094,0.179c0.047,0.202 -0.168,0.386 -0.488,0.562c-0.487,0.257 -0.946,0.677 -1.195,1.113c-0.125,0.215 -0.18,0.425 -0.167,0.563c0.001,0.073 0.023,0.128 0.051,0.186c0.034,0.072 0.127,0.222 0.184,0.332c0.434,0.679 1.196,1.221 2.077,1.576c0.008,0.003 0.012,0.012 0.01,0.02z" fill="#231F20"/>
<path id="Fill 17" fill-rule="evenodd" clip-rule="evenodd" d="M23.818,161.2823c-0.001,0.009 0.005,0.018 0.014,0.02c0.815,0.19 1.702,0.218 2.585,0.138c0.327,-0.022 0.644,-0.113 0.968,-0.166c1.149,-0.188 2.283,-0.545 3.369,-1.021c0.476,-0.221 0.932,-0.493 1.345,-0.802c0.545,-0.389 0.979,-0.872 1.427,-1.321c0.151,-0.136 0.286,-0.053 0.35,0.205c0.03,0.128 0.055,0.314 0.017,0.508c-0.044,0.18 -0.131,0.378 -0.269,0.556c-1.035,1.154 -2.323,1.981 -3.75,2.417c-0.855,0.245 -1.706,0.601 -2.607,0.757c-0.984,0.178 -1.998,0.241 -3.009,0.14c-0.621,-0.066 -1.246,-0.213 -1.831,-0.422c-0.887,-0.325 -1.725,-0.825 -2.42,-1.477c-0.543,-0.498 -1.042,-1.059 -1.401,-1.718c-0.073,-0.146 -0.145,-0.291 -0.207,-0.444c-0.179,-0.586 -0.077,-0.811 0.17,-0.992c0.056,-0.042 0.107,-0.09 0.161,-0.118c0.174,-0.091 0.437,0.084 0.666,0.402c0.336,0.476 0.629,0.924 0.963,1.335c0.335,0.41 0.73,0.763 1.178,1.062c0.653,0.438 1.462,0.76 2.266,0.921c0.01,0.001 0.016,0.01 0.015,0.02z" fill="#231F20"/>
<path id="Fill 22" fill-rule="evenodd" clip-rule="evenodd" d="M20.378,123.1433c0.009,-0.002 0.014,-0.01 0.014,-0.019c-0.022,-0.307 -0.023,-0.621 -0.006,-0.943l0.037,-0.504l0.06,-0.364c0.035,-0.131 0.082,-0.258 0.122,-0.387c0.173,-0.52 0.577,-0.858 1.056,-0.957c0.484,-0.096 0.988,0.07 1.376,0.423c0.094,0.092 0.192,0.185 0.27,0.289c0.086,0.105 0.168,0.206 0.203,0.274c0.099,0.154 0.178,0.306 0.252,0.457c0.148,0.303 0.262,0.601 0.364,0.898c0.192,0.599 0.353,1.221 0.426,1.838c0.306,2.467 -0.065,4.955 -1.145,7.19c-0.198,0.408 -0.43,0.802 -0.686,1.183c-0.13,0.193 -0.304,0.387 -0.457,0.577c-0.182,0.174 -0.367,0.353 -0.576,0.503c-0.851,0.617 -1.991,0.779 -2.925,0.558c-0.84,-0.172 -1.585,-0.528 -2.261,-0.954c-0.677,-0.43 -1.286,-0.93 -1.836,-1.512c-0.56,-0.601 -0.994,-1.26 -1.36,-1.96c-0.361,-0.7 -0.658,-1.441 -0.808,-2.242c-0.146,-0.791 -0.173,-1.679 0.214,-2.502c0.184,-0.4 0.436,-0.758 0.803,-1.06c0.359,-0.303 0.862,-0.478 1.338,-0.463c0.968,0.032 1.696,0.615 2.246,1.146c0.568,0.553 1.037,1.18 1.447,1.831c1.451,2.321 2.261,4.925 3.031,7.424c0.503,1.615 0.944,3.273 1.225,4.967c0.132,0.848 0.234,1.703 0.26,2.562c0.026,0.86 -0.018,1.719 -0.099,2.569c-0.13,1.061 -0.286,0.891 -0.451,-0.001c-0.091,-0.476 -0.21,-1.094 -0.347,-1.812c-0.165,-0.74 -0.329,-1.593 -0.487,-2.522c-0.281,-1.648 -0.75,-3.26 -1.253,-4.884c-0.49,-1.643 -0.979,-3.275 -1.574,-4.829c-0.595,-1.55 -1.319,-3.07 -2.363,-4.248c-0.258,-0.293 -0.549,-0.572 -0.821,-0.76c-0.284,-0.187 -0.587,-0.302 -0.843,-0.302c-0.258,-0.007 -0.482,0.085 -0.7,0.296c-0.217,0.211 -0.402,0.527 -0.495,0.834c-0.242,0.776 -0.056,1.773 0.311,2.671c0.365,0.905 0.911,1.788 1.575,2.483c0.696,0.704 1.532,1.31 2.418,1.711c0.881,0.382 1.855,0.564 2.616,0.207c0.421,-0.182 0.783,-0.504 1.082,-0.909c0.304,-0.439 0.573,-0.918 0.795,-1.42c0.433,-1.011 0.721,-2.101 0.844,-3.209c0.134,-1.108 0.106,-2.235 -0.09,-3.319c-0.111,-0.537 -0.257,-1.066 -0.464,-1.572c-0.103,-0.249 -0.219,-0.488 -0.35,-0.693c-0.109,-0.171 -0.164,-0.236 -0.292,-0.309c-0.15,-0.085 -0.339,0.005 -0.399,0.161c-0.033,0.074 -0.061,0.157 -0.072,0.232c-0.028,0.124 -0.058,0.305 -0.064,0.464c-0.032,0.663 0.043,1.36 0.172,2.038c0.131,0.68 0.319,1.354 0.582,1.986c0.256,0.615 0.604,1.26 1.05,1.569c0.369,0.225 0.824,0.336 1.261,0.253c0.443,-0.074 0.877,-0.312 1.258,-0.624c0.758,-0.633 1.366,-1.536 1.657,-2.475c0.143,-0.444 0.148,-0.955 0.083,-1.44c-0.069,-0.477 -0.243,-0.951 -0.529,-1.194c-0.295,-0.245 -0.59,-0.242 -0.901,0.052c-0.313,0.301 -0.569,0.754 -0.762,1.218c-0.159,0.363 -0.251,0.732 -0.343,1.14c-0.102,0.395 -0.171,0.797 -0.237,1.2c-0.118,0.805 -0.19,1.617 -0.207,2.429c-0.037,1.623 0.086,3.246 0.368,4.846c0.124,0.705 0.279,1.387 0.455,2.085c0.321,1.295 0.597,2.128 0.746,2.73c0.157,0.6 0.182,0.975 0.137,1.31c-0.021,0.153 -0.024,0.347 -0.063,0.449c-0.099,0.341 -0.869,-0.559 -1.559,-2.5c-0.999,-2.873 -1.499,-6.016 -1.362,-9.219c0.043,-0.799 0.118,-1.603 0.253,-2.404c0.075,-0.398 0.12,-0.804 0.216,-1.202l0.132,-0.608c0.058,-0.229 0.127,-0.436 0.202,-0.646c0.156,-0.417 0.341,-0.828 0.612,-1.242c0.271,-0.396 0.633,-0.883 1.421,-1.144c0.375,-0.086 0.793,-0.094 1.147,0.079c0.373,0.122 0.639,0.351 0.856,0.591c0.431,0.494 0.592,1.012 0.703,1.494c0.137,0.728 0.155,1.396 -0.03,2.166c-0.194,0.701 -0.502,1.298 -0.875,1.854c-0.376,0.552 -0.825,1.059 -1.38,1.488c-0.552,0.421 -1.241,0.782 -2.055,0.846c-0.198,0.029 -0.409,-0.006 -0.611,-0.015c-0.202,-0.026 -0.398,-0.09 -0.594,-0.141c-0.184,-0.074 -0.361,-0.163 -0.538,-0.25c-0.199,-0.116 -0.37,-0.257 -0.514,-0.398c-0.547,-0.571 -0.828,-1.166 -1.079,-1.758c-0.468,-1.185 -0.748,-2.378 -0.846,-3.636c0,-0.008 0.005,-0.016 0.013,-0.019z" fill="#231F20"/>
<path id="Fill 24" fill-rule="evenodd" clip-rule="evenodd" d="M45.022,124.6413c-0.014,0.108 -0.158,0.06 -0.381,-0.071c-0.071,-0.042 -0.24,-0.215 -0.245,-0.258c-0.012,-0.084 -0.021,-0.166 -0.016,-0.237c0,-0.043 0.282,-0.494 0.382,-0.652c0.094,-0.155 0.216,-0.28 0.349,-0.392c0.264,-0.235 0.547,-0.453 0.846,-0.652c0.067,-0.044 0.141,-0.075 0.221,-0.095c0.277,-0.066 0.516,-0.188 0.752,-0.331c0.04,-0.023 0.086,-0.035 0.108,-0.095c0.03,-0.108 0.74,-0.389 0.848,-0.376c0.26,0.01 0.507,-0.003 0.759,0.029c0.035,0.004 0.068,-0.021 0.109,0.029c0.092,0.114 0.159,0.083 0.233,0.083c0.102,-0.003 0.205,0.009 0.308,0.043c0.051,0.016 0.105,0.082 0.156,0.135c0.046,0.046 0.034,0.233 0.022,0.254c-0.037,0.061 0.002,0.145 0.011,0.222c0.007,0.053 -0.008,0.103 -0.046,0.141c-0.039,0.039 -0.097,0.092 -0.158,0.146c-0.177,0.157 -0.412,0.285 -0.632,0.371c-0.173,0.068 -0.348,0.15 -0.38,0.176c-0.073,0.049 -0.17,0.016 -0.247,0.059c-0.035,0.02 -0.074,0.043 -0.115,0.067c-0.193,0.113 -0.388,0.305 -0.608,0.259c-0.009,-0.002 -0.019,-0.004 -0.028,-0.007c-0.031,-0.009 -0.049,0.008 -0.069,0.021c-0.171,0.107 -0.367,0.171 -0.556,0.255c-0.095,0.046 -0.177,0.113 -0.264,0.171c-0.017,0.01 -0.041,0.008 -0.061,0.013c-0.025,0.006 -0.052,0.008 -0.072,0.023c-0.202,0.146 -0.442,0.252 -0.612,0.444c-0.041,0.04 -0.333,0.133 -0.375,0.189c-0.024,0.029 -0.233,-0.009 -0.239,0.036z" fill="#231F20"/>
<path id="Fill 26" fill-rule="evenodd" clip-rule="evenodd" d="M39.032,110.7883c-0.015,0.112 -0.167,0.061 -0.4,-0.073c-0.074,-0.043 -0.249,-0.221 -0.256,-0.265c-0.013,-0.087 -0.024,-0.174 -0.022,-0.248c0,-0.045 0.271,-0.527 0.361,-0.702c0.086,-0.169 0.203,-0.305 0.33,-0.43c0.259,-0.251 0.536,-0.482 0.811,-0.703c0.061,-0.049 0.132,-0.086 0.21,-0.109c0.269,-0.079 0.484,-0.228 0.678,-0.403c0.032,-0.029 0.073,-0.047 0.078,-0.114c0.011,-0.109 0.564,-0.519 0.653,-0.54c0.233,-0.048 0.441,-0.13 0.662,-0.2c0.032,-0.008 0.047,-0.043 0.108,-0.009c0.142,0.078 0.182,0.019 0.245,-0.011c0.086,-0.042 0.175,-0.08 0.28,-0.1c0.052,-0.01 0.139,0.025 0.215,0.046c0.07,0.02 0.182,0.194 0.185,0.222c0.007,0.077 0.096,0.132 0.153,0.197c0.02,0.021 0.045,0.05 0.058,0.069c0.294,0.394 -0.437,0.948 -0.794,1.284c-0.063,0.059 -0.11,0.105 -0.125,0.123c-0.032,0.039 -0.093,0.039 -0.145,0.049c-0.025,0.008 -0.508,0.464 -0.529,0.473c-0.122,0.06 -0.204,0.176 -0.383,0.148c-0.035,-0.006 -0.054,0.014 -0.074,0.031c-0.177,0.141 -0.388,0.228 -0.588,0.331c-0.101,0.052 -0.182,0.132 -0.275,0.196c-0.016,0.013 -0.043,0.01 -0.064,0.016c-0.026,0.008 -0.057,0.01 -0.077,0.026c-0.2,0.174 -0.464,0.27 -0.641,0.472c-0.043,0.041 -0.357,0.131 -0.401,0.19c-0.026,0.03 -0.247,-0.012 -0.253,0.034z" fill="#231F20"/>
<path id="Fill 19" fill-rule="evenodd" clip-rule="evenodd" d="M30.981,163.9173c-0.007,-0.003 -0.015,-0.002 -0.019,0.004c-0.327,0.466 -0.716,0.936 -1.232,1.302c-0.195,0.124 -0.379,0.274 -0.605,0.353c-0.389,0.161 -0.846,0.202 -1.242,0.139c-0.401,-0.061 -0.765,-0.198 -1.091,-0.374c-0.289,-0.156 -0.569,-0.316 -0.835,-0.488c-0.169,-0.113 -0.342,-0.222 -0.498,-0.35c-0.149,-0.137 -0.276,-0.3 -0.381,-0.478c-0.064,-0.114 0.054,-0.206 0.245,-0.259c0.427,-0.114 0.832,0.134 1.208,0.367c0.417,0.259 0.836,0.476 1.252,0.636c0.382,0.138 0.741,0.033 1.09,-0.161c0.381,-0.206 0.72,-0.549 1.012,-0.955c0.184,-0.246 0.347,-0.521 0.504,-0.8c0.232,-0.429 0.466,-0.872 0.669,-1.33c0.154,-0.356 0.259,-0.738 0.428,-1.101c0.037,-0.08 0.066,-0.164 0.11,-0.242c0.182,-0.28 0.328,-0.313 0.59,-0.206c0.056,0.023 0.111,0.038 0.156,0.06c0.136,0.065 0.264,0.316 0.212,0.533c-0.146,0.651 -0.418,1.259 -0.743,1.902c-0.236,0.474 -0.502,0.957 -0.811,1.443c-0.004,0.007 -0.013,0.009 -0.019,0.005z" fill="#231F20"/>
<path id="Fill 28" fill-rule="evenodd" clip-rule="evenodd" d="M22.58,103.7403c0.069,0.098 -0.066,0.186 -0.309,0.268c-0.078,0.026 -0.315,0.03 -0.351,0.003c-0.07,-0.052 -0.14,-0.104 -0.192,-0.158c-0.028,-0.034 -0.218,-0.559 -0.31,-0.731c-0.082,-0.169 -0.126,-0.338 -0.162,-0.509c-0.072,-0.345 -0.178,-0.684 -0.239,-1.027c-0.015,-0.076 -0.013,-0.154 0,-0.235c0.051,-0.276 0.004,-0.541 -0.085,-0.797c-0.015,-0.043 -0.017,-0.089 -0.079,-0.121c-0.024,-0.011 -0.051,-0.056 -0.079,-0.12c-0.203,-0.469 -0.104,-0.997 -0.039,-1.504c0.004,-0.036 -0.023,-0.067 0.031,-0.112c0.124,-0.105 0.08,-0.17 0.089,-0.249c0.001,-0.028 0.003,-0.055 0.005,-0.083c0.013,-0.167 0.101,-0.31 0.201,-0.444c0.043,-0.059 0.17,-0.065 0.193,-0.054c0.058,0.033 0.117,-0.021 0.171,-0.039c0.018,-0.006 0.043,-0.014 0.06,-0.016c0.029,-0.005 0.179,0.091 0.331,0.204c0.252,0.186 0.415,0.471 0.541,0.758c0.097,0.221 0.202,0.452 0.23,0.498c0.058,0.094 0.02,0.217 0.055,0.322c0.071,0.212 0.189,0.562 0.189,0.584c0.007,0.151 0.082,0.292 -0.026,0.462c-0.02,0.033 -0.009,0.062 -0.002,0.092c0.055,0.252 0.036,0.517 0.032,0.777c-0.003,0.133 0.027,0.262 0.028,0.394c0,0.024 -0.018,0.05 -0.025,0.074c-0.01,0.031 -0.025,0.063 -0.023,0.093c0.022,0.31 -0.038,0.626 0.008,0.932c0.01,0.071 -0.121,0.417 -0.105,0.497c0.008,0.046 -0.167,0.202 -0.138,0.241z" fill="#231F20"/>
<path id="Fill 31" fill-rule="evenodd" clip-rule="evenodd" d="M2.45,104.8313c-0.132,-0.018 -0.064,-0.195 0.13,-0.454c0.061,-0.083 0.298,-0.279 0.349,-0.288c0.099,-0.018 0.195,-0.035 0.274,-0.036c0.046,0.003 0.498,0.243 0.67,0.294c0.16,0.059 0.291,0.147 0.416,0.243l0.799,0.558c0.06,0.042 0.11,0.097 0.155,0.163c0.149,0.23 0.363,0.376 0.598,0.489c0.039,0.019 0.072,0.05 0.136,0.027c0.1,-0.036 0.712,0.328 0.774,0.411c0.148,0.206 0.319,0.378 0.482,0.567c0.023,0.027 0.065,0.028 0.06,0.097c-0.012,0.161 0.063,0.178 0.12,0.224c0.08,0.064 0.157,0.136 0.219,0.23c0.031,0.046 0.031,0.143 0.039,0.225c0.008,0.074 -0.125,0.248 -0.151,0.261c-0.074,0.035 -0.095,0.142 -0.138,0.222c-0.015,0.027 -0.034,0.062 -0.048,0.082c-0.033,0.044 -0.718,0.077 -0.772,0.044c-0.006,-0.003 -0.205,-0.084 -0.418,-0.172c-0.213,-0.085 -0.436,-0.173 -0.486,-0.186c-0.052,-0.013 -0.079,-0.069 -0.112,-0.113c-0.014,-0.016 -0.676,-0.271 -0.699,-0.291c-0.116,-0.089 -0.271,-0.123 -0.324,-0.309c-0.01,-0.037 -0.039,-0.047 -0.064,-0.061c-0.225,-0.12 -0.409,-0.304 -0.597,-0.48c-0.098,-0.088 -0.214,-0.154 -0.319,-0.233c-0.018,-0.015 -0.025,-0.044 -0.039,-0.066c-0.017,-0.026 -0.028,-0.061 -0.052,-0.078c-0.249,-0.191 -0.437,-0.451 -0.699,-0.633c-0.064,-0.041 -0.197,-0.398 -0.266,-0.445c-0.041,-0.027 0.015,-0.285 -0.037,-0.292z" fill="#231F20"/>
</g>
</g>
<path id="Vector 3" d="M487,54.3803c0,0 2.5,-9.188 2.55,-20.342c0.09,-18.002 -5.91,-36.925 -5.29,-54.917c0.4,-11.864 3,-28.121 3,-28.121" stroke="black" stroke-width="7"/>
<g id="Vector_17" filter="url(#filter9_d_1_914)">
<path d="M432.57,405.7383v22.59l-11.79,-5.893c-6.48,-3.143 -12.57,-5.893 -13.75,-5.893c-4.52,0 -1.37,6.09 7.07,13.554c6.09,5.304 8.25,8.251 6.49,8.84c-1.58,0.589 -13.17,3.732 -26.13,6.875c-24.16,5.893 -29.07,8.447 -25.34,12.179c1.37,1.375 10.8,0.786 31.82,-2.357c16.5,-2.357 30.45,-3.732 31.04,-3.143c0.59,0.786 -2.75,7.661 -7.27,15.519c-4.71,7.857 -8.64,14.929 -9.04,15.518c-0.39,0.786 0.59,2.357 1.97,3.536c2.36,1.964 4.32,0.982 10.61,-4.518c4.32,-3.929 8.64,-7.072 9.62,-7.072c0.98,0 2.95,5.893 4.52,13.161c3.34,16.894 5.7,22.194 10.02,22.194c5.3,0 6.28,-6.086 4.71,-28.676c-0.78,-11.393 -0.78,-20.429 0.2,-20.429c0.98,0 8.84,3.143 17.48,6.875c17.09,7.464 22.59,8.447 22.59,4.125c0,-3.929 -3.14,-6.679 -18.27,-17.09c-7.26,-4.714 -13.16,-9.232 -13.16,-9.822c0,-0.589 10.02,-3.928 22.2,-7.464c21.8,-6.286 30.84,-10.411 30.84,-13.947c0,-2.947 -12.38,-2.358 -32.02,1.178c-9.43,1.768 -17.87,2.75 -18.46,1.965c-0.59,-0.59 0.78,-5.697 3.14,-11.197c8.84,-21.412 3.34,-23.376 -10.41,-3.536c-5.11,7.661 -10.22,13.161 -11,12.179c-0.79,-0.786 -2.95,-8.643 -4.91,-17.286c-3.93,-18.465 -6.49,-24.555 -10.22,-24.555c-1.96,0 -2.55,5.107 -2.55,22.59z" fill="#FF6258"/>
<path d="M452.41,509.3283c1,0 1.6,-0.265 2.07,-0.792c0.53,-0.61 1.04,-1.744 1.38,-3.816c0.68,-4.144 0.55,-11.137 -0.23,-22.463v-0.001c-0.4,-5.718 -0.6,-10.866 -0.57,-14.601c0.01,-1.859 0.08,-3.413 0.21,-4.525c0.07,-0.543 0.16,-1.064 0.31,-1.484c0.07,-0.202 0.18,-0.483 0.38,-0.741c0.21,-0.26 0.65,-0.683 1.36,-0.683c0.37,0 0.79,0.116 1.09,0.201c0.37,0.104 0.82,0.252 1.33,0.433c1.04,0.363 2.41,0.881 4,1.51c3.19,1.26 7.33,2.984 11.66,4.854v0.003c8.57,3.743 14.06,5.779 17.37,6.381c1.7,0.309 2.5,0.173 2.81,0.011c0.11,-0.053 0.31,-0.146 0.31,-0.892c0,-0.751 -0.14,-1.41 -0.54,-2.145c-0.42,-0.772 -1.16,-1.682 -2.44,-2.868c-2.58,-2.391 -7.05,-5.616 -14.63,-10.837c-3.65,-2.367 -6.96,-4.688 -9.36,-6.499c-1.21,-0.906 -2.2,-1.698 -2.91,-2.312c-0.35,-0.303 -0.65,-0.586 -0.88,-0.833c-0.11,-0.12 -0.24,-0.266 -0.34,-0.424c-0.06,-0.079 -0.13,-0.19 -0.18,-0.326c-0.06,-0.121 -0.15,-0.359 -0.15,-0.668c0,-0.53 0.27,-0.886 0.37,-1.01c0.12,-0.155 0.26,-0.264 0.34,-0.329c0.18,-0.133 0.38,-0.246 0.55,-0.337c0.37,-0.189 0.86,-0.403 1.44,-0.634c1.17,-0.467 2.83,-1.061 4.86,-1.74c4.05,-1.359 9.62,-3.083 15.72,-4.855v-0.001c10.9,-3.14 18.52,-5.718 23.4,-7.93c2.44,-1.109 4.12,-2.087 5.15,-2.944c0.8,-0.656 1.08,-1.122 1.17,-1.403c-0.18,-0.091 -0.5,-0.21 -1,-0.316c-1.29,-0.266 -3.3,-0.364 -6.04,-0.255c-5.11,0.204 -12.4,1.111 -21.36,2.676l-1.81,0.321c-4.74,0.888 -9.24,1.582 -12.65,1.956c-1.7,0.186 -3.17,0.296 -4.26,0.306c-0.54,0.005 -1.05,-0.015 -1.47,-0.076c-0.2,-0.03 -0.44,-0.078 -0.67,-0.163c-0.18,-0.065 -0.51,-0.21 -0.79,-0.526c-0.24,-0.259 -0.36,-0.54 -0.42,-0.733c-0.06,-0.215 -0.09,-0.424 -0.1,-0.598c-0.03,-0.345 0,-0.723 0.05,-1.092c0.09,-0.749 0.31,-1.692 0.6,-2.743c0.58,-2.108 1.54,-4.817 2.73,-7.611v-0.001c2.2,-5.315 3.46,-9.337 3.95,-12.065c0.24,-1.378 0.27,-2.314 0.17,-2.88c-0.01,-0.114 -0.04,-0.198 -0.06,-0.26c-0.12,0.034 -0.34,0.111 -0.67,0.3c-0.68,0.386 -1.58,1.09 -2.69,2.184c-2.22,2.176 -5.08,5.687 -8.49,10.613c-2.58,3.867 -5.17,7.212 -7.24,9.486c-1.03,1.129 -1.98,2.048 -2.77,2.631c-0.37,0.28 -0.82,0.563 -1.28,0.71c-0.42,0.132 -1.36,0.284 -2.05,-0.487c-0.29,-0.313 -0.49,-0.735 -0.62,-1.014c-0.16,-0.363 -0.33,-0.813 -0.51,-1.323c-0.36,-1.025 -0.77,-2.386 -1.22,-3.97c-0.89,-3.174 -1.93,-7.325 -2.92,-11.663v-0.01v-0.011c-1.97,-9.237 -3.56,-15.249 -5.1,-18.936c-0.77,-1.846 -1.47,-2.987 -2.11,-3.651c-0.5,-0.519 -0.92,-0.714 -1.32,-0.763c-0.02,0.04 -0.04,0.093 -0.07,0.16c-0.24,0.533 -0.48,1.529 -0.67,3.232c-0.38,3.365 -0.53,8.93 -0.53,17.682v25.018l-2.17,-1.086l-11.77,-5.885c-3.24,-1.568 -6.36,-3.031 -8.81,-4.1c-1.23,-0.535 -2.27,-0.964 -3.07,-1.256c-0.4,-0.146 -0.72,-0.251 -0.96,-0.318c-0.18,-0.05 -0.26,-0.063 -0.28,-0.067c-0.3,0.002 -0.46,0.039 -0.54,0.066c-0.01,0.183 0.04,0.712 0.57,1.718c1.15,2.209 3.88,5.452 8.06,9.144l-0.01,0.001c3.05,2.656 5.22,4.808 6.41,6.424c0.56,0.769 1.07,1.63 1.17,2.489c0.05,0.48 -0.02,1.04 -0.36,1.55c-0.32,0.482 -0.78,0.755 -1.2,0.905v0c-0.01,0.004 -0.02,0.007 -0.03,0.011c-0.01,0.002 -0.01,0.005 -0.02,0.007v0c-0.95,0.345 -4.3,1.289 -8.88,2.507c-4.72,1.255 -10.87,2.829 -17.37,4.403v0c-12.12,2.956 -19.22,5.033 -22.82,6.79c-0.89,0.432 -1.51,0.817 -1.91,1.151c-0.41,0.337 -0.53,0.558 -0.57,0.646c-0.01,0.044 -0.03,0.089 0.03,0.223c0.06,0.168 0.23,0.431 0.59,0.797c0.03,0.016 0.12,0.046 0.26,0.083c0.3,0.077 0.77,0.147 1.42,0.188c1.31,0.083 3.19,0.045 5.75,-0.137c5.09,-0.365 12.66,-1.291 23.16,-2.861l0.01,-0.001c8.27,-1.181 15.9,-2.116 21.55,-2.683c2.82,-0.284 5.16,-0.477 6.85,-0.562c0.83,-0.042 1.54,-0.059 2.07,-0.043c0.26,0.008 0.52,0.025 0.75,0.061c0.11,0.017 0.25,0.045 0.41,0.095c0.11,0.038 0.41,0.145 0.68,0.413l0.07,0.076l0.07,0.086c0.28,0.378 0.34,0.783 0.36,1.009c0.02,0.251 -0.01,0.492 -0.04,0.693c-0.06,0.404 -0.19,0.863 -0.35,1.335c-0.33,0.956 -0.86,2.194 -1.53,3.612c-1.35,2.848 -3.34,6.568 -5.61,10.517l-0.01,0.023l-1.72,2.891c-1.68,2.831 -3.19,5.454 -4.41,7.569c-1.31,2.285 -2.31,4.052 -2.75,4.793c0.03,0.085 0.08,0.208 0.17,0.365c0.27,0.462 0.74,1.022 1.32,1.523c0.46,0.382 0.78,0.517 1.03,0.557c0.25,0.04 0.62,0.018 1.23,-0.249c1.15,-0.505 2.74,-1.678 5.25,-3.83l1.14,-0.983c2.19,-1.987 4.38,-3.782 6.16,-5.09c0.9,-0.654 1.71,-1.203 2.39,-1.596c0.33,-0.195 0.66,-0.367 0.96,-0.495c0.25,-0.108 0.66,-0.262 1.1,-0.262c0.83,0.001 1.36,0.57 1.55,0.789c0.26,0.302 0.49,0.677 0.68,1.053c0.4,0.766 0.82,1.813 1.23,3.03c0.83,2.453 1.73,5.802 2.53,9.472v0.014v0.012c1.67,8.459 3.07,13.849 4.54,17.11c0.73,1.622 1.42,2.592 2.07,3.151c0.6,0.52 1.21,0.724 1.94,0.724z" stroke="black" stroke-width="3"/>
</g>
<circle id="Ellipse 8" cx="194" cy="33.148300000000006" r="10" fill="black"/>
<circle id="Ellipse 9" cx="317" cy="33.148300000000006" r="10" fill="black"/>
<g id="Frame 95481">
<path id="Vector_18" d="M236.16,228.5613c-6,9.2 -4.67,22.134 2.26,20.8c5.34,-0.933 10.67,-16 8,-22.8c-1.86,-5.2 -6,-4.4 -10.26,2z" fill="#0C0C0C"/>
<path id="Vector_19" d="M273.62,230.8283c-4.66,3.066 -6.13,17.2 -2.53,24.266c2.8,5.334 6.67,5.2 10.13,-0.4c3.74,-5.866 2.94,-16.933 -1.46,-21.6c-3.34,-3.6 -3.87,-3.733 -6.14,-2.266z" fill="#0C0C0C"/>
<path id="Vector_20" d="M204.29,245.0943c-1.87,7.334 5.6,25.734 14.8,36.267c2.8,3.333 8.4,7.333 13.73,10c8.4,4.133 9.73,4.4 22.93,4.4c12.67,0 14.8,-0.4 22.4,-3.867c9.74,-4.533 22.94,-17.733 22.94,-23.066c0,-4.667 -3.34,-3.867 -12.54,3.466c-10.13,8 -14.93,10.534 -23.33,12.134c-8,1.466 -20.93,-0.4 -28,-4c-8.4,-4.267 -20.8,-20 -25.73,-32.667c-2.54,-6.4 -5.87,-7.733 -7.2,-2.667z" fill="#0C0C0C"/>
</g>
</g></svg>