<svg viewBox="0 0 40 40" fill="none" xmlns="http://www.w3.org/2000/svg" xmlns:xlink="http://www.w3.org/1999/xlink" x="0" y="0"><g id="Group_5">
<path id="Vector_72" d="M40,20c0,2.63 -0.52,5.24 -1.53,7.68c-1.01,2.43 -2.49,4.64 -4.36,6.49c-1.85,1.85 -4.05,3.32 -6.47,4.32c-2.43,1 -5.02,1.51 -7.64,1.51c-11.05,0 -20,-8.95 -20,-20c-0.01,-5.13 1.96,-10.06 5.5,-13.77c1.87,-1.97 4.11,-3.54 6.61,-4.61c2.49,-1.07 5.18,-1.62 7.89,-1.62c2.62,0 5.21,0.51 7.64,1.51c2.42,1 4.62,2.47 6.47,4.32c1.87,1.85 3.35,4.06 4.36,6.49c1.01,2.44 1.53,5.05 1.53,7.68z" stroke="black" stroke-width="3" stroke-linecap="round" stroke-linejoin="round"/>
<path id="Vector_73" d="M40,20c-2.92,0 -10.97,-1.1 -18.17,2.06c-7.83,3.44 -13.5,8.77 -15.97,12.09" stroke="black" stroke-width="3" stroke-linecap="round" stroke-linejoin="round"/>
<path id="Vector_74" d="M12.5,1.45c3.13,2.89 9.96,10.25 12.5,17.55c2.54,7.3 3.48,16.28 4.06,18.84" stroke="black" stroke-width="3" stroke-linecap="round" stroke-linejoin="round"/>
<path id="Vector_75" d="M0.15,17.5c3.78,0.23 13.78,0.43 20.18,-2.3c6.4,-2.73 11.91,-7.76 13.8,-9.35M1.5,27.61c1.76,4.27 4.94,7.8 9,9.99" stroke="black" stroke-width="3" stroke-linecap="round" stroke-linejoin="round"/>
<path id="Vector_76" d="M0,20c-0.01,-5.13 1.96,-10.06 5.5,-13.77c1.87,-1.97 4.11,-3.54 6.61,-4.61c2.49,-1.07 5.18,-1.62 7.89,-1.62M28,1.66c2.28,1 4.35,2.41 6.11,4.17c1.87,1.85 3.35,4.06 4.36,6.49c1.01,2.44 1.53,5.05 1.53,7.68c0,2.46 -0.44,4.82 -1.26,7M20,40c2.62,0 5.21,-0.51 7.64,-1.51c2.42,-1 4.62,-2.47 6.47,-4.32" stroke="black" stroke-width="3" stroke-linecap="round" stroke-linejoin="round"/>
</g></svg>