<svg viewBox="0 0 48 54.7758" fill="none" xmlns="http://www.w3.org/2000/svg" xmlns:xlink="http://www.w3.org/1999/xlink" x="0" y="0"><path id="Vector_28" d="M26.6,4.08c-0.16,0.37 -0.23,2.95 -0.19,5.7l0.09,5.07l-1.73,0.43c-0.98,0.2 -1.88,0.37 -2.04,0.3c-0.16,-0.07 -0.45,-2.56 -0.73,-5.48c-0.39,-4.82 -1.28,-7.51 -2.36,-7.1c-0.21,0.03 -0.67,3.2 -1.05,6.91l-0.67,6.76l-4.43,1.65c-4,1.39 -4.35,1.62 -3.36,2.25c0.56,0.44 2.4,0.75 4.04,0.79c1.66,-0.02 3.04,0.02 3.15,0.07c0.37,0.16 0.2,7.22 -0.18,8.07c-0.21,0.47 -1.94,1.35 -3.86,1.96c-1.98,0.58 -3.43,1.39 -3.31,1.7c0.12,0.31 1.7,0.76 3.47,0.91c1.83,0.19 3.46,0.53 3.68,0.89c0.25,0.3 0.62,3.45 0.82,6.98c0.54,7.75 1.36,9.9 3.07,7.8c0.44,-0.57 1.07,-4.1 1.39,-8.1l0.63,-7.09l1.67,-0.47l1.65,-0.41l0.34,6.2c0.23,4.62 0.59,6.37 1.33,6.71c1.43,0.64 2.56,-2.17 3.57,-8.84c0.42,-2.93 0.86,-5.34 0.99,-5.35c1.82,-0.08 7.86,-2.34 8.19,-3.08c0.61,-1.38 -0.39,-1.7 -4.66,-1.39l-3.74,0.24l-0.22,-4.04c-0.13,-2.29 -0.27,-4.39 -0.28,-4.64c0.01,-0.32 1.77,-1.12 3.87,-1.84c2.1,-0.71 3.96,-1.6 4.1,-1.91c0.62,-1.38 -1.15,-1.98 -4.67,-1.65c-1.99,0.19 -3.81,0.27 -4.02,0.17c-0.27,-0.11 -0.95,-2.14 -1.6,-4.53c-1.16,-4.52 -2.4,-6.86 -2.95,-5.64zM26.5,22.1c0.14,0.95 0.17,2.88 0.05,4.29c-0.16,2.34 -0.33,2.58 -1.44,2.79c-0.64,0.16 -1.42,0.19 -1.63,0.09c-0.27,-0.11 -0.51,-2.13 -0.61,-4.47c-0.13,-4.13 -0.13,-4.26 1.21,-4.55c1.88,-0.36 2.07,-0.22 2.42,1.85z" fill="black"/></svg>