<svg viewBox="0 0 30 44.347" fill="none" xmlns="http://www.w3.org/2000/svg" xmlns:xlink="http://www.w3.org/1999/xlink" x="0" y="0"><path id="Vector_29" d="M17.895,0.8199c-2.829,1.28 -5.932,5.52 -7.438,10.18l-0.548,1.73l-2.646,-0.05c-3.469,-0.04 -5.34,0.92 -6.481,3.38c-3.057,6.8 3.24,20.86 12.048,26.93c3.149,2.19 3.56,2 6.617,-2.56c5.385,-8.03 7.94,-13.37 9.629,-19.94c3.286,-13.1 -2.601,-23.55 -11.181,-19.67zM23.143,3.8299c1.871,0.96 3.241,4.11 3.56,8.08c0.456,6.52 -2.556,15.01 -8.808,24.87c-1.642,2.6 -3.148,4.7 -3.377,4.7c-0.958,0 -5.932,-6.16 -7.621,-9.4c-5.339,-10.22 -4.654,-18.03 1.415,-15.7c0.822,0.32 1.232,0.87 1.415,2.15c0.913,5.43 3.651,9.72 6.206,9.72c1.643,0 2.693,-1.51 2.693,-3.88c-0.046,-2.42 -1.324,-5.21 -3.651,-7.72l-1.917,-2.09l0.502,-2.1c1.278,-5.02 4.655,-9.22 7.484,-9.31c0.457,0 1.415,0.32 2.099,0.68z" fill="black"/></svg>