<svg viewBox="0 0 40 40" fill="none" xmlns="http://www.w3.org/2000/svg" xmlns:xlink="http://www.w3.org/1999/xlink" x="0" y="0"><path id="Vector_77" d="M20,14c-1.59,0 -3.12,0.63 -4.24,1.76c-1.13,1.12 -1.76,2.65 -1.76,4.24c0,1.59 0.63,3.12 1.76,4.24c1.12,1.13 2.65,1.76 4.24,1.76c1.59,0 3.12,-0.63 4.24,-1.76c1.13,-1.12 1.76,-2.65 1.76,-4.24c0,-1.59 -0.63,-3.12 -1.76,-4.24c-1.12,-1.13 -2.65,-1.76 -4.24,-1.76zM20,10c2.65,0 5.2,1.05 7.07,2.93c1.88,1.87 2.93,4.42 2.93,7.07c0,2.65 -1.05,5.2 -2.93,7.07c-1.87,1.88 -4.42,2.93 -7.07,2.93c-2.65,0 -5.19,-1.05 -7.07,-2.93c-1.87,-1.87 -2.93,-4.42 -2.93,-7.07c0,-2.65 1.06,-5.2 2.93,-7.07c1.88,-1.88 4.42,-2.93 7.07,-2.93zM33,9.5c0,0.66 -0.26,1.3 -0.73,1.77c-0.47,0.47 -1.1,0.73 -1.77,0.73c-0.66,0 -1.3,-0.26 -1.77,-0.73c-0.46,-0.47 -0.73,-1.11 -0.73,-1.77c0,-0.66 0.27,-1.3 0.73,-1.77c0.47,-0.47 1.11,-0.73 1.77,-0.73c0.67,0 1.3,0.26 1.77,0.73c0.47,0.47 0.73,1.11 0.73,1.77zM20,4c-4.95,0 -5.75,0.01 -8.06,0.12c-1.56,0.07 -2.62,0.28 -3.59,0.66c-0.82,0.3 -1.56,0.78 -2.16,1.41c-0.63,0.6 -1.11,1.34 -1.41,2.16c-0.38,0.98 -0.59,2.03 -0.66,3.59c-0.11,2.21 -0.12,2.98 -0.12,8.06c0,4.95 0.01,5.76 0.12,8.06c0.07,1.56 0.28,2.62 0.66,3.59c0.34,0.87 0.74,1.5 1.4,2.16c0.68,0.67 1.3,1.08 2.16,1.41c0.99,0.38 2.04,0.59 3.6,0.66c2.21,0.11 2.98,0.12 8.06,0.12c4.95,0 5.76,-0.01 8.06,-0.12c1.56,-0.07 2.61,-0.28 3.59,-0.66c0.82,-0.3 1.56,-0.78 2.16,-1.4c0.68,-0.68 1.08,-1.3 1.41,-2.16c0.38,-0.99 0.59,-2.04 0.66,-3.6c0.11,-2.21 0.12,-2.98 0.12,-8.06c0,-4.95 -0.01,-5.76 -0.12,-8.06c-0.07,-1.56 -0.28,-2.62 -0.66,-3.59c-0.3,-0.82 -0.78,-1.56 -1.41,-2.16c-0.6,-0.63 -1.34,-1.11 -2.16,-1.41c-0.98,-0.38 -2.03,-0.59 -3.59,-0.66c-2.21,-0.11 -2.98,-0.12 -8.06,-0.12M20,0c5.43,0 6.11,0.02 8.25,0.12c2.12,0.1 3.58,0.43 4.85,0.93c1.32,0.51 2.43,1.2 3.54,2.31c1.02,1 1.81,2.21 2.31,3.54c0.49,1.27 0.83,2.73 0.93,4.86c0.09,2.13 0.12,2.81 0.12,8.24c0,5.43 -0.02,6.11 -0.12,8.24c-0.1,2.13 -0.44,3.58 -0.93,4.86c-0.5,1.34 -1.29,2.55 -2.31,3.54c-1,1.02 -2.21,1.81 -3.54,2.31c-1.27,0.49 -2.73,0.83 -4.85,0.93c-2.14,0.09 -2.82,0.12 -8.25,0.12c-5.43,0 -6.11,-0.02 -8.25,-0.12c-2.12,-0.1 -3.57,-0.44 -4.85,-0.93c-1.34,-0.5 -2.54,-1.29 -3.54,-2.31c-1.02,-1 -1.81,-2.21 -2.31,-3.54c-0.5,-1.27 -0.83,-2.73 -0.93,-4.86c-0.1,-2.13 -0.12,-2.81 -0.12,-8.24c0,-5.43 0.02,-6.11 0.12,-8.24c0.1,-2.13 0.43,-3.58 0.93,-4.86c0.5,-1.34 1.29,-2.55 2.31,-3.54c1,-1.02 2.2,-1.81 3.54,-2.31c1.27,-0.5 2.72,-0.83 4.85,-0.93c2.14,-0.09 2.82,-0.12 8.25,-0.12" fill="black"/></svg>