<svg viewBox="0 0 72.6709 68.1938" fill="none" xmlns="http://www.w3.org/2000/svg" xmlns:xlink="http://www.w3.org/1999/xlink" x="0" y="0"><g id="Frame 21_2">
<path id="Vector_31" d="M38.6181,8.37c-1.764,2.81 0.763,10.88 4.331,13.85c2.736,2.23 4.761,1.21 5.294,-2.7c0.613,-4.11 -2.402,-9.95 -5.833,-11.42c-2.615,-1.15 -2.93,-1.09 -3.792,0.27z" fill="black"/>
<path id="Vector_32" d="M15.0591,10.24c-1.764,2.81 0.762,10.88 4.33,13.86c2.737,2.22 4.761,1.2 5.294,-2.7c0.613,-4.12 -2.402,-9.96 -5.833,-11.43c-2.615,-1.14 -2.929,-1.09 -3.791,0.27z" fill="black"/>
<path id="Vector_33" d="M5.0831,33.12c0.723,4.46 8.999,12.67 16.355,16.16c2.268,1.13 6.182,1.94 9.642,2.09c5.433,0.2 6.204,0.02 13.223,-3.21c6.735,-3.11 7.776,-3.85 11.006,-7.6c4.115,-4.85 8.045,-15.29 6.797,-18.2c-1.092,-2.54 -2.677,-1.29 -5.853,4.96c-3.516,6.85 -5.476,9.41 -9.568,12.34c-3.91,2.76 -11.224,4.9 -15.824,4.67c-5.464,-0.27 -15.739,-5.81 -21.325,-11.51c-2.845,-2.88 -4.929,-2.79 -4.453,0.3z" fill="black"/>
</g></svg>