<svg viewBox="0 0 42.57 37" fill="none" xmlns="http://www.w3.org/2000/svg" xmlns:xlink="http://www.w3.org/1999/xlink" x="0" y="0"><path id="Vector_27" d="M21.076,1.11c-0.789,0.62 -2.31,2.59 -3.324,4.34l-1.86,3.21l-6.085,0.45c-7.099,0.56 -8.564,1.01 -9.409,2.87c-1.014,2.2 -0.225,3.72 3.944,7.95c2.197,2.14 4,4.28 4,4.67c0,0.4 -0.676,2.99 -1.464,5.69c-0.846,2.77 -1.353,5.47 -1.127,5.98c0.507,1.41 2.591,0.84 7.944,-2.2c2.479,-1.41 4.789,-2.59 5.071,-2.59c0.338,0 2.085,0.79 3.944,1.69c3.944,1.91 5.86,2.08 7.663,0.62c1.127,-0.9 1.352,-1.69 1.521,-5.3l0.225,-4.28l3.494,-2.2c4.507,-2.98 6.423,-4.73 6.874,-6.59c0.676,-2.82 -2.817,-4.73 -8.621,-4.79c-3.437,0 -5.127,-0.84 -5.578,-2.65c-0.62,-2.53 -2.254,-6.08 -3.324,-7.1c-1.24,-1.24 -2.085,-1.18 -3.888,0.23zM22.992,8.71c0,0.46 -0.395,0.79 -0.845,0.79c-0.958,0 -1.015,-0.11 -0.507,-1.35c0.394,-1.01 1.352,-0.67 1.352,0.56zM12.85,14.86c0,0.73 -1.352,3.66 -1.69,3.66c-0.676,0 -3.944,-2.82 -3.944,-3.38c0,-0.28 0.563,-0.57 1.295,-0.68c1.184,-0.17 4.339,0.11 4.339,0.4zM23.161,15.08c1.465,0.57 1.746,1.19 2.366,4.57c0.338,1.91 0.282,2.02 -2.704,3.66l-3.099,1.63l-2.254,-1.52l-2.31,-1.52l0.845,-2.42c1.521,-4.4 3.663,-5.69 7.156,-4.4zM34.486,16.49c-0.338,0.9 -2.93,2.14 -3.606,1.75c-0.225,-0.12 -0.564,-0.79 -0.733,-1.41c-0.281,-1.02 0,-1.13 2.198,-1.13c1.803,0 2.366,0.17 2.141,0.79zM13.413,27.76c0,0.17 -0.225,0.45 -0.563,0.62c-0.282,0.17 -0.563,0.06 -0.563,-0.23c0,-0.33 0.281,-0.62 0.563,-0.62c0.338,0 0.563,0.12 0.563,0.23z" fill="black"/></svg>