<svg viewBox="0 0 45.7274 38.6665" fill="none" xmlns="http://www.w3.org/2000/svg" xmlns:xlink="http://www.w3.org/1999/xlink" x="0" y="0"><path id="Vector_30" d="M19.55,6.84v6.84l-3.57,-1.78c-1.96,-0.95 -3.8,-1.79 -4.16,-1.79c-1.37,0 -0.42,1.85 2.14,4.11c1.85,1.6 2.5,2.5 1.96,2.67c-0.47,0.18 -3.98,1.13 -7.91,2.09c-7.31,1.78 -8.8,2.55 -7.67,3.68c0.42,0.42 3.27,0.24 9.64,-0.71c4.99,-0.71 9.22,-1.13 9.39,-0.95c0.18,0.24 -0.83,2.32 -2.2,4.7c-1.42,2.38 -2.61,4.52 -2.73,4.7c-0.12,0.24 0.18,0.71 0.59,1.07c0.72,0.59 1.31,0.3 3.21,-1.37c1.31,-1.19 2.62,-2.14 2.92,-2.14c0.3,0 0.89,1.78 1.37,3.98c1.01,5.12 1.72,6.73 3.03,6.73c1.61,0 1.9,-1.85 1.43,-8.69c-0.24,-3.45 -0.24,-6.19 0.06,-6.19c0.3,0 2.68,0.96 5.29,2.09c5.18,2.26 6.84,2.55 6.84,1.25c0,-1.19 -0.95,-2.03 -5.53,-5.18c-2.2,-1.43 -3.98,-2.8 -3.98,-2.97c0,-0.18 3.03,-1.19 6.72,-2.26c6.6,-1.91 9.34,-3.16 9.34,-4.23c0,-0.89 -3.75,-0.71 -9.7,0.36c-2.85,0.53 -5.41,0.83 -5.59,0.59c-0.18,-0.17 0.24,-1.72 0.95,-3.39c2.68,-6.48 1.01,-7.08 -3.15,-1.07c-1.55,2.32 -3.1,3.99 -3.33,3.69c-0.24,-0.24 -0.9,-2.62 -1.49,-5.23c-1.19,-5.6 -1.96,-7.44 -3.09,-7.44c-0.6,0 -0.78,1.55 -0.78,6.84z" fill="black"/></svg>