<svg viewBox="0 0 48.9557 49" fill="none" xmlns="http://www.w3.org/2000/svg" xmlns:xlink="http://www.w3.org/1999/xlink" x="0" y="0"><path id="Vector_26" d="M24.478,49c1.596,0 2.904,-1.175 3.126,-2.838c2.195,-14.811 4.213,-16.873 18.447,-18.491c1.641,-0.2 2.905,-1.574 2.905,-3.171c0,-1.619 -1.242,-2.949 -2.883,-3.193c-14.145,-1.973 -15.897,-3.7025 -18.469,-18.491c-0.288,-1.6408 -1.552,-2.816 -3.126,-2.816c-1.619,0 -2.905,1.1752 -3.171,2.838c-2.15,14.7888 -4.168,16.8508 -18.38,18.469c-1.685,0.222 -2.927,1.552 -2.927,3.193c0,1.597 1.197,2.927 2.882,3.171c14.168,2.017 15.898,3.724 18.425,18.513c0.333,1.663 1.619,2.816 3.171,2.816z" fill="currentColor"/></svg>