<svg viewBox="0 0 160.9123 159.7775" fill="none" xmlns="http://www.w3.org/2000/svg" xmlns:xlink="http://www.w3.org/1999/xlink" x="0" y="0"><defs><filter id="filter21_d_1_914" x="-0.0005999999999630745" y="0" width="160.912" height="172.359" filterUnits="userSpaceOnUse" color-interpolation-filters="sRGB">
<feFlood flood-opacity="0" result="BackgroundImageFix"/>
<feColorMatrix in="SourceAlpha" type="matrix" values="0 0 0 0 0 0 0 0 0 0 0 0 0 0 0 0 0 0 127 0" result="hardAlpha"/>
<feOffset dy="12.5815"/>
<feComposite in2="hardAlpha" operator="out"/>
<feColorMatrix type="matrix" values="0 0 0 0 0 0 0 0 0 0 0 0 0 0 0 0 0 0 0.25 0"/>
<feBlend mode="normal" in2="BackgroundImageFix" result="effect1_dropShadow_1_914"/>
<feBlend mode="normal" in="SourceGraphic" in2="effect1_dropShadow_1_914" result="shape"/>
</filter><filter id="filter22_d_1_914" x="32.19940000000008" y="35.80000000000018" width="112.156" height="104.364" filterUnits="userSpaceOnUse" color-interpolation-filters="sRGB">
<feFlood flood-opacity="0" result="BackgroundImageFix"/>
<feColorMatrix in="SourceAlpha" type="matrix" values="0 0 0 0 0 0 0 0 0 0 0 0 0 0 0 0 0 0 127 0" result="hardAlpha"/>
<feOffset dy="3.14537"/>
<feComposite in2="hardAlpha" operator="out"/>
<feColorMatrix type="matrix" values="0 0 0 0 0 0 0 0 0 0 0 0 0 0 0 0 0 0 0.25 0"/>
<feBlend mode="normal" in2="BackgroundImageFix" result="effect1_dropShadow_1_914"/>
<feBlend mode="normal" in="SourceGraphic" in2="effect1_dropShadow_1_914" result="shape"/>
</filter><filter id="filter23_d_1_914" x="66.34939999999995" y="67.59000000000015" width="41.1816" height="38.3473" filterUnits="userSpaceOnUse" color-interpolation-filters="sRGB">
<feFlood flood-opacity="0" result="BackgroundImageFix"/>
<feColorMatrix in="SourceAlpha" type="matrix" values="0 0 0 0 0 0 0 0 0 0 0 0 0 0 0 0 0 0 127 0" result="hardAlpha"/>
<feOffset dy="3.14537"/>
<feComposite in2="hardAlpha" operator="out"/>
<feColorMatrix type="matrix" values="0 0 0 0 0 0 0 0 0 0 0 0 0 0 0 0 0 0 0.25 0"/>
<feBlend mode="normal" in2="BackgroundImageFix" result="effect1_dropShadow_1_914"/>
<feBlend mode="normal" in="SourceGraphic" in2="effect1_dropShadow_1_914" result="shape"/>
</filter></defs><g id="Frame 18_2" filter="url(#filter21_d_1_914)">
<rect width="112.826" height="117.442" transform="translate(96.21940000000006, 0) rotate(55.0113, 0, 0)" fill="#BAE6FF"/>
<g id="Vector_54" filter="url(#filter22_d_1_914)">
<path d="M122.6094,40.07c-1.62,0.49 -1.59,0.47 -15.29,12.63c-5.56,4.89 -10.25,8.91 -10.41,8.88c-0.16,-0.02 -0.53,-3.24 -0.79,-7.14c-0.52,-7.42 -1.25,-11.81 -2.13,-13.12c-1.03,-1.47 -2.3,-1.59 -3.99,-0.41c-1.79,1.25 -2.9,2.86 -8.2,11.78c-4.34,7.35 -5.46,8.82 -6.53,8.6c-1.38,-0.27 -3.74,-2.33 -15.31,-13.37c-6.3,-5.99 -12.08,-11.24 -12.87,-11.65c-2.57,-1.45 -3.95,0.57 -2.96,4.41c0.29,1.08 2.31,6.31 4.47,11.62c6,14.67 9.03,24.09 7.95,24.84c-0.24,0.18 -2.32,0.03 -4.66,-0.31c-8.41,-1.21 -13.92,-1.7 -14.9,-1.33c-0.76,0.29 -1,0.6 -1.06,1.42c-0.08,0.88 0.09,1.13 1.27,2.09c0.76,0.56 5.25,3.05 9.97,5.48c4.72,2.42 8.9,4.72 9.29,5.09c1.19,1.04 0.95,1.75 -0.93,3.25c-0.94,0.75 -5.81,4.53 -10.83,8.41c-11.74,9.13 -13.39,10.84 -12.16,12.59c1.42,2.03 5.66,1.35 22.53,-3.73c7.2,-2.15 13.4,-3.88 13.77,-3.82c0.55,0.07 0.58,0.51 0.17,2.22c-1.07,4.41 -3.05,15.92 -2.92,17.02c0.33,2.56 1.92,3 3.98,1.11c0.62,-0.62 3.84,-4.53 7.2,-8.76c3.33,-4.2 6.13,-7.67 6.23,-7.65c0.11,0.02 0.96,2.21 1.87,4.83c2.23,6.26 6.42,15.98 8.36,19.2c1.38,2.37 1.61,2.63 2.56,2.74c2.19,0.25 2.46,-0.8 4.75,-17.16c0.83,-5.94 1.73,-10.87 1.96,-10.94c0.23,-0.07 2.57,0.86 5.16,2.07c6.5,3.01 10.72,4.4 12.48,4.09c1.39,-0.24 1.45,-0.28 1.63,-1.33c0.29,-1.48 -2,-5.61 -5.68,-10.4c-1.57,-2.06 -2.87,-3.91 -2.81,-4.08c0.01,-0.19 2.87,0.1 6.3,0.68c9.95,1.59 18.98,2.51 21.79,2.15c2.2,-0.26 3.09,-1.67 2.04,-3.17c-0.45,-0.65 -7.72,-4.63 -18.1,-9.96c-4.15,-2.13 -7.54,-3.97 -7.57,-4.14c-0.02,-0.16 3.19,-2.45 7.09,-5.05c8.1,-5.44 9.34,-6.68 8.51,-8.2c-0.61,-1.13 -1.1,-1.11 -10.43,0.02c-8.05,1 -11.03,1.26 -11.26,0.92c-0.09,-0.12 0.4,-1.38 1.1,-2.88c0.68,-1.44 2.23,-4.72 3.46,-7.28c3.82,-8.03 7.4,-16.53 7.93,-18.78c0.42,-1.62 0.39,-2.38 -0.06,-3.03c-0.52,-0.73 -0.83,-0.79 -1.97,-0.45zM121.6694,45.72c-1.57,3.98 -6.46,14.78 -9.26,20.4c-2.36,4.68 -3.08,6.92 -2.46,7.82c0.73,1.04 4.37,1.06 11.85,0.04c4.16,-0.53 7.96,-0.99 8.44,-0.96c0.75,0.02 0.76,0.1 -0.18,0.85c-0.56,0.44 -4.14,2.99 -7.93,5.69l-6.91,4.84l0.48,0.9c0.37,0.65 3.92,2.71 12.82,7.38c6.78,3.54 12.44,6.59 12.57,6.77c0.13,0.18 0.15,0.4 0.02,0.49c-0.58,0.41 -14.63,-1.21 -21.87,-2.46c-4.39,-0.78 -8.13,-1.27 -8.37,-1.1c-1.05,0.73 -0.69,1.44 4.47,8.82c2.82,4.02 5.04,7.46 4.96,7.66c-0.35,0.88 -5,-0.72 -12.19,-4.2c-4.32,-2.11 -5.84,-2.38 -6.89,-1.13c-0.47,0.51 -1.31,4.99 -2.6,13.49c-1.02,6.99 -1.99,12.8 -2.14,12.91c-0.71,0.49 -2.84,-4.2 -7.39,-15.99c-4.38,-11.36 -4.44,-11.45 -6.47,-10.03c-0.56,0.38 -2.7,2.89 -4.73,5.55c-5.12,6.74 -9.17,11.5 -9.43,11.13c-0.32,-0.46 0.55,-5.7 2.06,-12.25c1.57,-6.78 1.6,-7.71 0.54,-8.25c-1.19,-0.59 -3.18,-0.16 -14.03,3.18c-14.79,4.53 -21.57,6.16 -22.19,5.27c-0.41,-0.59 2.15,-2.75 14.72,-12.41c5.51,-4.23 9.3,-7.38 9.64,-7.94c1.39,-2.34 -0.76,-4.55 -7.9,-8.16c-7.67,-3.89 -11.31,-5.88 -11.25,-6.19c0.03,-0.34 1.94,-0.17 9.53,0.93c6.6,0.92 8.44,0.87 9.02,-0.27c1.3,-2.6 -0.81,-9.73 -8.5,-28.9c-3.06,-7.57 -4.03,-10.46 -3.63,-10.74c0.34,-0.24 0.4,-0.15 11.96,10.87c11.34,10.83 13.27,12.55 15.32,13.64c3.05,1.62 4.28,0.48 10.4,-9.8c4.69,-7.96 6.54,-10.62 7.41,-10.82c0.96,-0.26 1.52,2.83 2.21,12.38c0.58,8.43 0.88,10.1 1.7,10.03c0.19,0 1.01,-0.66 1.82,-1.46c2.82,-2.71 23.64,-20.35 24.96,-21.14c0.69,-0.39 0.63,-0.02 -0.58,3.16z" fill="black"/>
</g>
<g id="Vector_55" filter="url(#filter23_d_1_914)">
<path d="M101.2994,73.67c-4.28,-3.69 -11.67,-6.26 -17.49,-6.07c-2.94,0.12 -7.3,1.35 -10.22,2.93c-8.24,4.4 -9.71,15.64 -3.05,23.39c6.78,7.85 19.79,11.2 27.7,7.13c6.35,-3.3 10.17,-10.41 9.12,-17.15c-0.37,-2.35 -0.68,-3.05 -2.41,-5.73c-1.27,-1.95 -2.6,-3.58 -3.65,-4.5zM104.8494,84.24c0.41,2.69 -0.3,6.58 -1.73,9.18c-1.09,1.91 -1.49,2.32 -4.41,4.37c-2.95,2.06 -3.45,2.27 -5.7,2.66c-2.85,0.44 -8.12,-0.36 -11.75,-1.81c-12.71,-5.07 -16.81,-18.78 -7.59,-25.24c4,-2.79 10.7,-4.41 14.98,-3.66c2.27,0.43 8.01,3.33 10.34,5.22c2.5,2.06 5.47,6.76 5.86,9.28z" fill="black"/>
</g>
<path id="Vector_56" d="M93.9894,84.97c-0.62,-0.44 -1.91,0.6 -1.81,1.45c0.18,1.57 2.35,1.61 2.63,0.04c0.12,-0.68 -0.09,-1.04 -0.82,-1.49z" fill="black"/>
<path id="Vector_57" d="M82.6094,78.32c-1.09,0.27 -1.54,1.13 -1.05,2.03c0.54,1.03 1.92,0.85 2.23,-0.28c0.24,-0.9 -0.47,-1.92 -1.18,-1.75z" fill="black"/>
<path id="Vector_58" d="M84.6194,91.21c-1.93,1.62 -2.4,1.86 -3.36,1.8c-0.96,-0.06 -1.17,-0.23 -1.4,-1.08c-0.21,-0.96 0.16,-2.91 0.87,-4.46c0.26,-0.6 0.2,-0.69 -0.38,-0.74c-1.04,-0.1 -2.4,2.6 -2.3,4.45c0.17,3.04 2.56,4.44 5.35,3.12c1.33,-0.65 3.37,-2.77 3.69,-3.82c0.36,-1.25 -0.32,-1.05 -2.47,0.73z" fill="black"/>
</g></svg>