<svg viewBox="0 0 309.5689 183.69" fill="none" xmlns="http://www.w3.org/2000/svg" xmlns:xlink="http://www.w3.org/1999/xlink" x="0" y="0"><defs><filter id="filter10_d_1_914" x="151.72199999999998" y="50.978999999999985" width="121.045" height="95.993" filterUnits="userSpaceOnUse" color-interpolation-filters="sRGB">
<feFlood flood-opacity="0" result="BackgroundImageFix"/>
<feColorMatrix in="SourceAlpha" type="matrix" values="0 0 0 0 0 0 0 0 0 0 0 0 0 0 0 0 0 0 127 0" result="hardAlpha"/>
<feOffset dx="-1" dy="4"/>
<feComposite in2="hardAlpha" operator="out"/>
<feColorMatrix type="matrix" values="0 0 0 0 0 0 0 0 0 0 0 0 0 0 0 0 0 0 1 0"/>
<feBlend mode="normal" in2="BackgroundImageFix" result="effect1_dropShadow_1_914"/>
<feBlend mode="normal" in="SourceGraphic" in2="effect1_dropShadow_1_914" result="shape"/>
</filter><filter id="filter11_d_1_914" x="48.561000000000035" y="17.87299999999999" width="97.3096" height="61.2579" filterUnits="userSpaceOnUse" color-interpolation-filters="sRGB">
<feFlood flood-opacity="0" result="BackgroundImageFix"/>
<feColorMatrix in="SourceAlpha" type="matrix" values="0 0 0 0 0 0 0 0 0 0 0 0 0 0 0 0 0 0 127 0" result="hardAlpha"/>
<feOffset dy="4"/>
<feComposite in2="hardAlpha" operator="out"/>
<feColorMatrix type="matrix" values="0 0 0 0 0.906944 0 0 0 0 0.906944 0 0 0 0 0.906944 0 0 0 0.32 0"/>
<feBlend mode="normal" in2="BackgroundImageFix" result="effect1_dropShadow_1_914"/>
<feBlend mode="normal" in="SourceGraphic" in2="effect1_dropShadow_1_914" result="shape"/>
</filter><clipPath id="clip1_1_914">
<rect width="130" height="130" fill="white" transform="translate(213.91600000000005, 0) rotate(42.6258, 0, 0)"/>
</clipPath></defs><g id="Frame 22">
<g id="Arrow_07" clip-path="url(#clip1_1_914)">
<g id="Group" filter="url(#filter10_d_1_914)">
<path id="Vector_21" d="M229.94,85.757c10.15,5.191 18.94,12.313 24.37,21.376c5.42,9.05 7.51,20.069 4.25,33.118v0.001c-0.09,0.342 -0.44,0.551 -0.78,0.466c-0.3,-0.076 -0.5,-0.352 -0.48,-0.65l0.01,-0.128c3.19,-12.7 1.11,-23.465 -4.23,-32.312c-5.34,-8.833 -13.93,-15.72 -23.725,-20.731c-9.889,-5.055 -21.049,-8.234 -31.501,-9.566c-10.444,-1.332 -20.223,-0.827 -27.338,1.523c-0.343,0.114 -0.534,0.037 -0.646,-0.038c-0.137,-0.093 -0.214,-0.227 -0.234,-0.266v-0.002c-0.034,-0.067 -0.083,-0.186 -0.081,-0.321c0.001,-0.1 0.028,-0.239 0.174,-0.401l0.071,-0.07c-0.002,0.001 0.006,-0.005 0.027,-0.021c0.019,-0.015 0.046,-0.035 0.08,-0.059c0.069,-0.047 0.162,-0.107 0.276,-0.18c0.228,-0.144 0.532,-0.329 0.892,-0.543c0.72,-0.429 1.655,-0.97 2.63,-1.529c1.457,-0.838 3.009,-1.72 4.06,-2.327l0.862,-0.504c0.673,-0.401 1.633,-0.901 2.781,-1.497c1.142,-0.593 2.459,-1.274 3.825,-2.031c2.557,-1.414 5.317,-3.104 7.47,-4.988l0.421,-0.378c1.248,-1.15 2.309,-2.404 2.819,-3.749c0.523,-1.379 0.454,-2.832 -0.512,-4.289v0.001c-0.975,-1.471 -2.467,-2.295 -4.243,-2.67c-1.765,-0.372 -3.838,-0.309 -6.04,0.006c-5.643,0.808 -12.345,3.432 -18.116,6.323c-5.763,2.887 -10.677,6.08 -12.723,8.069h-0.001c-0.254,0.248 -0.659,0.242 -0.904,-0.011c-0.247,-0.253 -0.242,-0.658 0.013,-0.906c2.015,-1.961 7.018,-5.238 12.996,-8.24c5.971,-2.999 12.835,-5.684 18.553,-6.502c5.34,-0.765 9.511,0.174 11.532,3.222c1.124,1.694 1.3,3.342 0.821,4.936c-0.458,1.517 -1.522,3.02 -3.021,4.464l-0.306,0.288c-2.174,2.006 -5.122,3.84 -7.905,5.393c-1.388,0.774 -2.726,1.473 -3.899,2.087c-0.876,0.458 -1.666,0.872 -2.31,1.232l-0.594,0.341c-0.464,0.275 -1.344,0.79 -2.37,1.384l0.323,0.928c14.682,-2.162 35.581,0.996 52.703,9.751z" fill="black" stroke="black"/>
<path id="Vector_22" d="M271.9,106.788c0.32,0.151 0.46,0.534 0.31,0.856l-0.01,0.001c-4.08,8.543 -8.19,16.613 -10.95,25.784v0c-0.13,0.422 -0.43,1.899 -0.78,3.46c-0.35,1.596 -0.75,3.31 -1.08,4.289l-0.01,0.001c-0.2,0.598 -0.42,0.938 -0.52,1.044c-0.13,0.142 -0.27,0.2 -0.39,0.226v0.001c-0.08,0.019 -0.19,0.033 -0.3,0.009c-0.1,-0.022 -0.24,-0.081 -0.38,-0.255v-0.003c-0.01,-0.004 -0.02,-0.022 -0.04,-0.065c-0.03,-0.045 -0.06,-0.105 -0.1,-0.175c-0.08,-0.14 -0.16,-0.312 -0.24,-0.486c-0.16,-0.325 -0.33,-0.701 -0.37,-0.768c-1.32,-2.733 -2.51,-5.624 -4.04,-8.326v-0.001c-3.39,-5.991 -8.19,-11.529 -14.05,-15.26c-0.26,-0.166 -0.36,-0.489 -0.25,-0.769l0.06,-0.116c0.19,-0.296 0.58,-0.386 0.88,-0.196c6.01,3.828 10.96,9.512 14.48,15.71c1.32,2.325 2.36,4.754 3.51,7.209l0.61,1.286l0.33,-1.38c0.54,-2.22 1.29,-5.276 1.45,-5.804v-0.002c2.77,-9.19 6.88,-17.284 11.03,-25.968c0.15,-0.319 0.54,-0.454 0.85,-0.302z" fill="black" stroke="black"/>
</g>
</g>
<g id="Frame 21">
<g id="Frame 20">
<path id="Vector_23" d="M26.548,61.403c-0.877,1.399 0.379,5.409 2.152,6.887c1.36,1.105 2.367,0.598 2.631,-1.342c0.305,-2.045 -1.193,-4.947 -2.899,-5.677c-1.299,-0.57 -1.456,-0.541 -1.884,0.132z" fill="black"/>
<path id="Vector_24" d="M14.84,62.334c-0.876,1.399 0.38,5.409 2.153,6.886c1.36,1.105 2.366,0.599 2.631,-1.341c0.304,-2.045 -1.194,-4.948 -2.899,-5.677c-1.3,-0.57 -1.456,-0.542 -1.885,0.132z" fill="black"/>
<path id="Vector_25" d="M9.882,73.707c0.359,2.216 4.472,6.295 8.128,8.031c1.128,0.562 3.073,0.965 4.792,1.039c2.701,0.098 3.084,0.008 6.572,-1.598c3.347,-1.542 3.865,-1.91 5.47,-3.775c2.045,-2.413 3.998,-7.598 3.378,-9.044c-0.542,-1.265 -1.33,-0.642 -2.909,2.465c-1.747,3.402 -2.721,4.673 -4.755,6.129c-1.944,1.371 -5.578,2.439 -7.864,2.324c-2.716,-0.135 -7.823,-2.891 -10.599,-5.724c-1.414,-1.427 -2.45,-1.382 -2.213,0.153z" fill="black"/>
</g>
<g id="ZAINAB" filter="url(#filter11_d_1_914)">
<path d="M56.625,75.131l-1.936,-4.471l4.624,-14.578l-0.184,-0.426l-8.942,3.87l-1.36,-3.14l12.615,-5.46l1.936,4.471l-4.624,14.578l0.184,0.426l9.262,-4.009l1.359,3.14zM71.214,68.816l-3.167,-20.749l6.121,-2.65l12.961,16.511l-3.62,1.566l-2.785,-3.661l-6.653,2.88l0.762,4.537zM73.49,59.109l5.004,-2.165l-6.191,-8.097l-0.479,0.208zM89.359,60.962l-8.064,-18.629l3.513,-1.521l8.064,18.63zM96.376,57.925l-8.063,-18.63l6.68,-2.891l10.726,14.633l0.479,-0.207l-7.027,-16.235l3.46,-1.497l8.064,18.63l-6.681,2.891l-10.726,-14.633l-0.479,0.207l7.027,16.235zM112.928,50.761l-3.166,-20.749l6.121,-2.65l12.96,16.511l-3.619,1.566l-2.786,-3.661l-6.653,2.88l0.763,4.536zM115.205,41.054l5.003,-2.165l-6.19,-8.097l-0.479,0.208zM130.541,43.138l-1.336,-3.087l2.448,-1.06l-5.391,-12.456l-2.448,1.06l-1.337,-3.087l9.581,-4.147c1.136,-0.492 2.205,-0.723 3.208,-0.693c1.013,0.004 1.904,0.261 2.672,0.771c0.779,0.484 1.379,1.215 1.802,2.191l0.115,0.266c0.368,0.851 0.512,1.621 0.431,2.31c-0.089,0.67 -0.29,1.252 -0.603,1.746c-0.303,0.468 -0.623,0.849 -0.96,1.142l0.208,0.479c0.436,-0.063 0.95,-0.043 1.542,0.059c0.584,0.084 1.155,0.332 1.713,0.744c0.575,0.404 1.054,1.05 1.438,1.937l0.116,0.266c0.445,1.029 0.589,2.02 0.433,2.972c-0.164,0.935 -0.588,1.782 -1.27,2.541c-0.665,0.751 -1.557,1.369 -2.675,1.853zM135.12,37.364l3.3,-1.429c0.763,-0.33 1.295,-0.781 1.595,-1.353c0.318,-0.58 0.327,-1.216 0.027,-1.908l-0.115,-0.266c-0.3,-0.692 -0.761,-1.125 -1.383,-1.298c-0.623,-0.173 -1.324,-0.09 -2.105,0.248l-3.3,1.428zM131.757,29.592l3.246,-1.405c0.728,-0.315 1.242,-0.758 1.542,-1.331c0.317,-0.58 0.334,-1.198 0.05,-1.854l-0.115,-0.266c-0.292,-0.675 -0.745,-1.089 -1.36,-1.244c-0.623,-0.173 -1.307,-0.099 -2.052,0.224l-3.247,1.405z" fill="black"/>
</g>
</g>
</g></svg>