<svg viewBox="0 0 1440 128.684" fill="none" xmlns="http://www.w3.org/2000/svg" xmlns:xlink="http://www.w3.org/1999/xlink" id="78dacd31" x="0" y="0"><g id="3" data-node-id="1:914" clip-path="url(#clip0_1_914)"><g id="Vector_4" data-node-id="1:919" filter="url(#filter3_d_1_914)">
<path d="M-1.4321,23.09v22.59l-11.7862,-5.893c-6.4824,-3.143 -12.5719,-5.893 -13.7506,-5.893c-4.518,0 -1.375,6.09 7.0718,13.554c6.0895,5.304 8.2503,8.251 6.4824,8.84c-1.5715,0.589 -13.1613,3.732 -26.1261,6.875c-24.1617,5.893 -29.0726,8.447 -25.3403,12.179c1.375,1.375 10.804,0.786 31.8227,-2.357c16.5007,-2.357 30.44769,-3.732 31.037,-3.143c0.5893,0.786 -2.75012,7.661 -7.26816,15.519c-4.71444,7.857 -8.64324,14.929 -9.03604,15.518c-0.3929,0.786 0.5893,2.357 1.9643,3.536c2.3573,1.964 4.3216,0.982 10.6076,-4.518c4.3216,-3.929 8.64321,-7.072 9.62539,-7.072c0.98218,0 2.94655,5.893 4.51804,13.162c3.33947,16.893 5.69667,22.197 10.01827,22.197c5.3038,0 6.286,-6.09 4.7145,-28.68c-0.7858,-11.393 -0.7858,-20.429 0.1964,-20.429c0.9822,0 8.8397,3.143 17.4829,6.875c17.09,7.465 22.5902,8.447 22.5902,4.125c0,-3.929 -3.143,-6.679 -18.2686,-17.09c-7.2682,-4.714 -13.1613,-9.232 -13.1613,-9.822c0,-0.589 10.0183,-3.928 22.1974,-7.464c21.8044,-6.286 30.8405,-10.411 30.8405,-13.947c0,-2.947 -12.3755,-2.358 -32.0192,1.178c-9.4289,1.768 -17.8757,2.75 -18.465,1.965c-0.5893,-0.59 0.7857,-5.697 3.143,-11.197c8.8396,-21.412 3.3394,-23.376 -10.4112,-3.536c-5.1073,7.661 -10.2147,13.161 -11.0004,12.179c-0.7858,-0.786 -2.9465,-8.643 -4.9109,-17.286c-3.92875,-18.465 -6.48243,-24.555 -10.21472,-24.555c-1.96437,0 -2.55368,5.107 -2.55368,22.59z" fill="#F3ABCB"/>
<path d="M18.4082,127.184c1.1108,0 1.864,-0.306 2.4443,-0.965c0.6288,-0.714 1.1589,-1.96 1.5039,-4.065c0.6901,-4.212 0.5558,-11.264 -0.2314,-22.581v0c-0.3938,-5.711 -0.5922,-10.845 -0.5674,-14.563c0.0124,-1.853 0.08,-3.384 0.2129,-4.467c0.0654,-0.532 0.1534,-1.013 0.2803,-1.383c0.0616,-0.179 0.1545,-0.401 0.3066,-0.596c0.1531,-0.197 0.4707,-0.49 0.9619,-0.49c0.2852,0.001 0.6478,0.095 0.9532,0.182c0.352,0.101 0.7938,0.245 1.3066,0.424c1.0281,0.359 2.3869,0.875 3.9756,1.503c3.1801,1.257 7.3159,2.98 11.6435,4.848l0.0039,0.002c8.561,3.74 14.104,5.801 17.4825,6.415c1.717,0.313 2.6547,0.205 3.1269,-0.036c0.3304,-0.168 0.58,-0.48 0.5801,-1.337c0,-0.828 -0.16,-1.57 -0.6045,-2.384c-0.4579,-0.839 -1.2375,-1.792 -2.5371,-2.996c-2.61,-2.419 -7.1047,-5.662 -14.6709,-10.871c-3.6509,-2.368 -6.9605,-4.689 -9.3633,-6.498c-1.1994,-0.902 -2.1842,-1.686 -2.876,-2.289c-0.343,-0.298 -0.6328,-0.568 -0.8437,-0.796c-0.1037,-0.111 -0.209,-0.236 -0.2949,-0.363c-0.0431,-0.064 -0.0943,-0.148 -0.1377,-0.247c-0.0391,-0.089 -0.1016,-0.256 -0.1016,-0.468c0,-0.36 0.1799,-0.604 0.2539,-0.695c0.0902,-0.111 0.1892,-0.192 0.2588,-0.244c0.1429,-0.108 0.3143,-0.207 0.4805,-0.293c0.3422,-0.178 0.8179,-0.385 1.3916,-0.614c1.1557,-0.462 2.8097,-1.052 4.8291,-1.729c4.0438,-1.356 9.607,-3.079 15.7051,-4.849l0.0019,-0.001c10.8957,-3.142 18.5467,-5.727 23.461,-7.955c2.4621,-1.115 4.1796,-2.116 5.2666,-3.015c1.1039,-0.913 1.3859,-1.576 1.3886,-2.01c-0.0097,-0.014 -0.0434,-0.06 -0.1357,-0.123c-0.2175,-0.149 -0.6278,-0.319 -1.3067,-0.46c-1.345,-0.279 -3.4077,-0.375 -6.1601,-0.266c-5.4798,0.219 -13.4297,1.24 -23.2324,3.004h0.0009c-4.7309,0.887 -9.2265,1.58 -12.623,1.952c-1.6941,0.185 -3.1378,0.294 -4.209,0.303c-0.5313,0.005 -1.0062,-0.014 -1.3867,-0.07c-0.1889,-0.028 -0.3891,-0.069 -0.5752,-0.138c-0.1486,-0.054 -0.3982,-0.166 -0.5996,-0.397c-0.1687,-0.184 -0.254,-0.388 -0.2998,-0.538c-0.0511,-0.168 -0.0737,-0.336 -0.084,-0.487c-0.0205,-0.299 0.0016,-0.641 0.0469,-0.995c0.0915,-0.715 0.2958,-1.633 0.584,-2.673c0.5787,-2.088 1.5277,-4.782 2.7207,-7.566c2.1965,-5.322 3.477,-9.378 3.9707,-12.156c0.2486,-1.4 0.2834,-2.401 0.1777,-3.049c-0.0521,-0.319 -0.1301,-0.503 -0.1914,-0.598c-0.052,-0.08 -0.0854,-0.091 -0.0986,-0.095c-0.0723,-0.025 -0.4118,-0.062 -1.1875,0.379c-0.7314,0.417 -1.664,1.155 -2.7911,2.262c-2.2448,2.206 -5.1228,5.741 -8.54,10.67h0.001c-2.5741,3.861 -5.1586,7.193 -7.2139,9.449c-1.0212,1.121 -1.944,2.012 -2.6904,2.567c-0.3629,0.269 -0.7536,0.513 -1.1377,0.634c-0.3442,0.11 -1.0105,0.203 -1.4981,-0.319c-0.2435,-0.243 -0.4267,-0.613 -0.5605,-0.91c-0.1548,-0.344 -0.3227,-0.779 -0.499,-1.283c-0.3537,-1.011 -0.7646,-2.36 -1.209,-3.94c-0.8898,-3.163 -1.9255,-7.306 -2.9102,-11.638l-0.0029,-0.014c-1.96504,-9.236 -3.56985,-15.291 -5.12598,-19.025c-0.77877,-1.869 -1.51352,-3.076 -2.21387,-3.805c-0.67173,-0.699 -1.28221,-0.933 -1.89648,-0.933c-0.00385,0 0,-0.008 -0.02637,0.015c-0.04883,0.042 -0.15636,0.163 -0.28711,0.46c-0.26718,0.606 -0.5127,1.664 -0.70703,3.377c-0.38551,3.397 -0.5332,8.989 -0.5332,17.738v24.208l-1.44727,-0.724l-11.78609,-5.892c-3.232,-1.567 -6.3571,-3.031 -8.8164,-4.103c-1.2325,-0.537 -2.2869,-0.97 -3.0977,-1.267c-0.4059,-0.149 -0.7387,-0.259 -0.9951,-0.33c-0.1279,-0.036 -0.2281,-0.059 -0.3028,-0.074c-0.08,-0.015 -0.105,-0.014 -0.0918,-0.014c-0.4649,0 -0.7261,0.081 -0.8583,0.153c-0.1042,0.057 -0.1465,0.116 -0.1739,0.206c-0.0862,0.285 -0.0265,0.965 0.5938,2.157c1.191,2.291 3.9756,5.582 8.166,9.286l0.001,-0.001c3.05,2.656 5.1858,4.781 6.3369,6.35c0.5557,0.758 0.9921,1.528 1.0722,2.248c0.0437,0.393 -0.0132,0.829 -0.2724,1.218c-0.2477,0.371 -0.6067,0.59 -0.961,0.714h0.001c-0.8446,0.317 -4.1971,1.264 -8.8847,2.51c-4.7212,1.254 -10.867,2.827 -17.3565,4.4h0.001c-12.1075,2.953 -19.2635,5.042 -22.9297,6.827c-0.9065,0.442 -1.5583,0.846 -2.0059,1.213c-0.4505,0.37 -0.6421,0.661 -0.7158,0.862c-0.1021,0.28 -0.0817,0.735 0.7813,1.598c-0.0201,-0.02 0.0657,0.065 0.4394,0.16c0.3471,0.088 0.8422,0.161 1.5127,0.203c1.3394,0.085 3.2524,0.046 5.8145,-0.137c5.1166,-0.366 12.6978,-1.294 23.2011,-2.865l0.0059,-0.001c8.2608,-1.18 15.8875,-2.115 21.5273,-2.681c2.81775,-0.283 5.15078,-0.476 6.82329,-0.56c0.83315,-0.042 1.52222,-0.057 2.03223,-0.042c0.25193,0.008 0.48782,0.024 0.68652,0.055c0.0983,0.015 0.21378,0.038 0.3291,0.076c0.09098,0.03 0.30206,0.107 0.48731,0.292l0.05078,0.051l0.04199,0.056c0.20181,0.27 0.24965,0.564 0.2627,0.747c0.01417,0.198 -0.0039,0.398 -0.03223,0.579c-0.05693,0.362 -0.17803,0.789 -0.33594,1.25c-0.31878,0.93 -0.84109,2.148 -1.50976,3.559c-1.34125,2.832 -3.31931,6.541 -5.58594,10.483l-0.00488,0.007l-0.00391,0.008l-1.72266,2.893c-1.6751,2.834 -3.1919,5.459 -4.4062,7.575c-1.4473,2.522 -2.5017,4.38 -2.8506,4.953c0.0008,0.019 0.0021,0.05 0.0117,0.095c0.0298,0.141 0.1078,0.348 0.2588,0.609c0.2993,0.519 0.8051,1.118 1.4199,1.647c0.5083,0.423 0.9104,0.616 1.2852,0.676c0.3703,0.06 0.8356,0.009 1.5039,-0.284c1.4014,-0.613 3.34255,-2.116 6.50387,-4.882h0.00097c2.18261,-1.984 4.37136,-3.775 6.14746,-5.076c0.8862,-0.649 1.68442,-1.187 2.33692,-1.567c0.32516,-0.19 0.63145,-0.351 0.90527,-0.467c0.24265,-0.103 0.57415,-0.222 0.90918,-0.222c0.59611,0.001 0.99407,0.411 1.16992,0.616c0.22331,0.259 0.42801,0.595 0.61621,0.957c0.38138,0.732 0.78697,1.752 1.19825,2.961c0.82635,2.429 1.71982,5.759 2.51074,9.417l0.00195,0.007l0.00195,0.009c1.67121,8.455 3.07731,13.898 4.57131,17.218c0.7443,1.654 1.475,2.697 2.2002,3.324c0.6947,0.601 1.4192,0.85 2.2656,0.85z" stroke="black" stroke-width="2"/>
</g><line id="Line 7" data-node-id="1:1001" x1="-4" y1="102.5" x2="1444" y2="102.5" stroke="black" stroke-width="6"/></g><defs><filter id="filter3_d_1_914" x="-66" y="0.5" width="151" height="135.448" filterUnits="userSpaceOnUse" color-interpolation-filters="sRGB">
<feFlood flood-opacity="0" result="BackgroundImageFix"/>
<feColorMatrix in="SourceAlpha" type="matrix" values="0 0 0 0 0 0 0 0 0 0 0 0 0 0 0 0 0 0 127 0" result="hardAlpha"/>
<feOffset dy="7.76457"/>
<feComposite in2="hardAlpha" operator="out"/>
<feColorMatrix type="matrix" values="0 0 0 0 0.745098 0 0 0 0 0.74902 0 0 0 0 0.705882 0 0 0 1 0"/>
<feBlend mode="normal" in2="BackgroundImageFix" result="effect1_dropShadow_1_914"/>
<feBlend mode="normal" in="SourceGraphic" in2="effect1_dropShadow_1_914" result="shape"/>
</filter><clipPath id="clip0_1_914">
<rect width="1440" height="6250" fill="white" x="0" y="-128.5"/>
</clipPath></defs></svg>