<svg viewBox="0 0 204.6342 203.191" fill="none" xmlns="http://www.w3.org/2000/svg" xmlns:xlink="http://www.w3.org/1999/xlink" x="0" y="0"><defs><filter id="filter4_d_1_914" x="-0.00010000000000331966" y="0.0003000000000383807" width="204.634" height="219.191" filterUnits="userSpaceOnUse" color-interpolation-filters="sRGB">
<feFlood flood-opacity="0" result="BackgroundImageFix"/>
<feColorMatrix in="SourceAlpha" type="matrix" values="0 0 0 0 0 0 0 0 0 0 0 0 0 0 0 0 0 0 127 0" result="hardAlpha"/>
<feOffset dy="16"/>
<feComposite in2="hardAlpha" operator="out"/>
<feColorMatrix type="matrix" values="0 0 0 0 0 0 0 0 0 0 0 0 0 0 0 0 0 0 0.25 0"/>
<feBlend mode="normal" in2="BackgroundImageFix" result="effect1_dropShadow_1_914"/>
<feBlend mode="normal" in="SourceGraphic" in2="effect1_dropShadow_1_914" result="shape"/>
</filter><filter id="filter5_d_1_914" x="40.94290000000001" y="45.53030000000001" width="142.63" height="132.721" filterUnits="userSpaceOnUse" color-interpolation-filters="sRGB">
<feFlood flood-opacity="0" result="BackgroundImageFix"/>
<feColorMatrix in="SourceAlpha" type="matrix" values="0 0 0 0 0 0 0 0 0 0 0 0 0 0 0 0 0 0 127 0" result="hardAlpha"/>
<feOffset dy="4"/>
<feComposite in2="hardAlpha" operator="out"/>
<feColorMatrix type="matrix" values="0 0 0 0 0 0 0 0 0 0 0 0 0 0 0 0 0 0 0.25 0"/>
<feBlend mode="normal" in2="BackgroundImageFix" result="effect1_dropShadow_1_914"/>
<feBlend mode="normal" in="SourceGraphic" in2="effect1_dropShadow_1_914" result="shape"/>
</filter><filter id="filter6_d_1_914" x="84.3749" y="85.95030000000003" width="52.3713" height="48.7668" filterUnits="userSpaceOnUse" color-interpolation-filters="sRGB">
<feFlood flood-opacity="0" result="BackgroundImageFix"/>
<feColorMatrix in="SourceAlpha" type="matrix" values="0 0 0 0 0 0 0 0 0 0 0 0 0 0 0 0 0 0 127 0" result="hardAlpha"/>
<feOffset dy="4"/>
<feComposite in2="hardAlpha" operator="out"/>
<feColorMatrix type="matrix" values="0 0 0 0 0 0 0 0 0 0 0 0 0 0 0 0 0 0 0.25 0"/>
<feBlend mode="normal" in2="BackgroundImageFix" result="effect1_dropShadow_1_914"/>
<feBlend mode="normal" in="SourceGraphic" in2="effect1_dropShadow_1_914" result="shape"/>
</filter></defs><g id="Frame 14" filter="url(#filter4_d_1_914)">
<rect width="143.482" height="149.353" transform="translate(122.3589, 0.0003000000000383807) rotate(55.0113, 0, 0)" fill="#F3ABCB"/>
<g id="Vector_5" filter="url(#filter5_d_1_914)">
<path d="M155.9259,50.9553c-2.064,0.629 -2.025,0.601 -19.452,16.061c-7.06,6.223 -13.034,11.335 -13.233,11.3c-0.199,-0.035 -0.676,-4.128 -1,-9.084c-0.664,-9.437 -1.598,-15.015 -2.708,-16.685c-1.314,-1.876 -2.932,-2.025 -5.082,-0.52c-2.267,1.587 -3.69,3.632 -10.423,14.983c-5.52,9.339 -6.947,11.211 -8.303,10.937c-1.755,-0.344 -4.753,-2.963 -19.474,-17.005c-8.009,-7.616 -15.362,-14.293 -16.367,-14.813c-3.271,-1.845 -5.027,0.723 -3.764,5.606c0.375,1.368 2.935,8.021 5.683,14.776c7.637,18.651 11.483,30.636 10.114,31.594c-0.312,0.219 -2.951,0.027 -5.926,-0.395c-10.691,-1.545 -17.708,-2.167 -18.955,-1.702c-0.957,0.379 -1.266,0.77 -1.348,1.818c-0.094,1.114 0.125,1.427 1.622,2.65c0.969,0.72 6.68,3.886 12.68,6.967c6.001,3.081 11.309,6.005 11.809,6.47c1.513,1.33 1.216,2.236 -1.177,4.144c-1.196,0.954 -7.388,5.754 -13.776,10.691c-14.933,11.616 -17.029,13.782 -15.469,16.01c1.806,2.58 7.2,1.717 28.658,-4.74c9.151,-2.736 17.044,-4.94 17.509,-4.858c0.704,0.09 0.743,0.645 0.223,2.815c-1.369,5.617 -3.883,20.249 -3.719,21.648c0.418,3.26 2.443,3.823 5.062,1.408c0.79,-0.786 4.887,-5.75 9.16,-11.129c4.233,-5.351 7.787,-9.761 7.92,-9.737c0.133,0.023 1.215,2.818 2.376,6.141c2.842,7.971 8.165,20.32 10.628,24.421c1.763,3.018 2.048,3.342 3.256,3.487c2.787,0.321 3.127,-1.024 6.044,-21.82c1.06,-7.556 2.202,-13.83 2.491,-13.916c0.29,-0.086 3.268,1.09 6.56,2.631c8.267,3.823 13.642,5.594 15.87,5.2c1.767,-0.305 1.845,-0.36 2.08,-1.689c0.368,-1.888 -2.544,-7.13 -7.223,-13.233c-2.005,-2.615 -3.647,-4.96 -3.573,-5.187c0.008,-0.239 3.643,0.129 8.002,0.864c12.661,2.03 24.138,3.199 27.715,2.734c2.799,-0.328 3.937,-2.114 2.596,-4.03c-0.574,-0.821 -9.823,-5.88 -23.016,-12.663c-5.277,-2.713 -9.592,-5.051 -9.624,-5.262c-0.031,-0.211 4.046,-3.123 9.015,-6.426c10.301,-6.918 11.88,-8.49 10.817,-10.425c-0.774,-1.438 -1.395,-1.411 -13.263,0.023c-10.231,1.278 -14.022,1.602 -14.323,1.172c-0.11,-0.157 0.516,-1.759 1.399,-3.659c0.872,-1.833 2.842,-6.008 4.41,-9.26c4.852,-10.211 9.399,-21.023 10.075,-23.884c0.536,-2.064 0.501,-3.03 -0.074,-3.851c-0.656,-0.938 -1.055,-1.008 -2.502,-0.578zM154.7259,58.1433c-1.99,5.062 -8.218,18.799 -11.776,25.948c-3.002,5.946 -3.917,8.799 -3.124,9.933c0.931,1.329 5.551,1.357 15.066,0.056c5.293,-0.676 10.125,-1.263 10.734,-1.223c0.954,0.031 0.97,0.136 -0.226,1.09c-0.716,0.559 -5.262,3.8 -10.082,7.231l-8.796,6.157l0.621,1.137c0.469,0.837 4.976,3.448 16.297,9.387c8.627,4.504 15.823,8.378 15.987,8.613c0.165,0.234 0.184,0.512 0.028,0.621c-0.743,0.52 -18.607,-1.537 -27.817,-3.129c-5.582,-0.985 -10.336,-1.619 -10.648,-1.4c-1.33,0.931 -0.872,1.834 5.695,11.216c3.584,5.121 6.41,9.491 6.297,9.745c-0.438,1.122 -6.349,-0.915 -15.504,-5.34c-5.488,-2.682 -7.415,-3.022 -8.756,-1.443c-0.594,0.649 -1.669,6.352 -3.304,17.164c-1.294,8.886 -2.53,16.274 -2.726,16.411c-0.899,0.629 -3.615,-5.333 -9.396,-20.332c-5.57,-14.448 -5.652,-14.566 -8.232,-12.76c-0.703,0.493 -3.424,3.678 -6.008,7.06c-6.517,8.58 -11.662,14.627 -11.99,14.158c-0.411,-0.587 0.696,-7.244 2.612,-15.574c2.002,-8.623 2.041,-9.816 0.688,-10.5c-1.512,-0.746 -4.042,-0.199 -17.845,4.045c-18.799,5.761 -27.423,7.836 -28.216,6.703c-0.52,-0.743 2.74,-3.491 18.718,-15.78c7.013,-5.375 11.833,-9.389 12.267,-10.101c1.759,-2.978 -0.965,-5.789 -10.058,-10.375c-9.749,-4.942 -14.373,-7.471 -14.302,-7.87c0.043,-0.438 2.47,-0.215 12.125,1.181c8.393,1.174 10.735,1.107 11.47,-0.339c1.646,-3.307 -1.035,-12.38 -10.815,-36.754c-3.885,-9.628 -5.12,-13.307 -4.612,-13.662c0.43,-0.301 0.513,-0.184 15.206,13.819c14.424,13.784 16.882,15.966 19.482,17.35c3.885,2.056 5.441,0.618 13.233,-12.466c5.966,-10.116 8.311,-13.505 9.418,-13.755c1.223,-0.332 1.934,3.596 2.805,15.742c0.746,10.719 1.126,12.841 2.169,12.752c0.239,0.007 1.279,-0.837 2.315,-1.853c3.588,-3.444 30.058,-25.873 31.743,-26.877c0.876,-0.497 0.793,-0.032 -0.743,4.014z" fill="black"/>
</g>
<g id="Vector_6" filter="url(#filter6_d_1_914)">
<path d="M128.8189,93.6913c-5.441,-4.695 -14.834,-7.964 -22.242,-7.729c-3.729,0.163 -9.28,1.719 -12.994,3.736c-10.476,5.585 -12.35,19.885 -3.879,29.74c8.619,9.984 25.169,14.242 35.232,9.063c8.072,-4.194 12.924,-13.239 11.591,-21.8c-0.465,-2.994 -0.855,-3.886 -3.064,-7.291c-1.618,-2.478 -3.307,-4.558 -4.644,-5.719zM133.3339,107.1313c0.527,3.416 -0.38,8.361 -2.198,11.672c-1.388,2.428 -1.892,2.955 -5.606,5.555c-3.753,2.626 -4.382,2.892 -7.244,3.381c-3.627,0.558 -10.335,-0.454 -14.944,-2.296c-16.164,-6.451 -21.377,-23.886 -9.65,-32.094c5.082,-3.557 13.6,-5.617 19.05,-4.655c2.885,0.544 10.183,4.231 13.149,6.639c3.171,2.615 6.946,8.592 7.443,11.798z" fill="black"/>
</g>
<path id="Vector_7" d="M119.5329,108.0533c-0.793,-0.552 -2.431,0.769 -2.314,1.852c0.231,1.994 2.998,2.037 3.35,0.043c0.153,-0.863 -0.109,-1.321 -1.036,-1.895z" fill="black"/>
<path id="Vector_8" d="M105.0589,99.6043c-1.396,0.336 -1.967,1.435 -1.345,2.572c0.692,1.322 2.447,1.083 2.838,-0.355c0.305,-1.146 -0.598,-2.436 -1.493,-2.217z" fill="black"/>
<path id="Vector_9" d="M107.6149,115.9873c-2.455,2.068 -3.057,2.373 -4.276,2.294c-1.22,-0.078 -1.49,-0.297 -1.779,-1.376c-0.266,-1.211 0.207,-3.698 1.103,-5.664c0.34,-0.762 0.258,-0.879 -0.485,-0.942c-1.313,-0.129 -3.049,3.299 -2.917,5.652c0.207,3.874 3.253,5.645 6.802,3.976c1.689,-0.832 4.289,-3.525 4.695,-4.858c0.454,-1.599 -0.414,-1.341 -3.143,0.918z" fill="black"/>
</g></svg>