<svg viewBox="0 0 151 127.6838" fill="none" xmlns="http://www.w3.org/2000/svg" xmlns:xlink="http://www.w3.org/1999/xlink" x="0" y="0"><defs><filter id="filter29_d_1_914" x="0" y="0.00020000000040454324" width="151" height="135.448" filterUnits="userSpaceOnUse" color-interpolation-filters="sRGB">
<feFlood flood-opacity="0" result="BackgroundImageFix"/>
<feColorMatrix in="SourceAlpha" type="matrix" values="0 0 0 0 0 0 0 0 0 0 0 0 0 0 0 0 0 0 127 0" result="hardAlpha"/>
<feOffset dy="7.76457"/>
<feComposite in2="hardAlpha" operator="out"/>
<feColorMatrix type="matrix" values="0 0 0 0 0.745098 0 0 0 0 0.74902 0 0 0 0 0.705882 0 0 0 1 0"/>
<feBlend mode="normal" in2="BackgroundImageFix" result="effect1_dropShadow_1_914"/>
<feBlend mode="normal" in="SourceGraphic" in2="effect1_dropShadow_1_914" result="shape"/>
</filter></defs><g id="Vector_70" filter="url(#filter29_d_1_914)">
<path d="M64.568,22.5902v22.59l-11.786,-5.89c-6.483,-3.15 -12.572,-5.9 -13.751,-5.9c-4.518,0 -1.375,6.09 7.072,13.56c6.089,5.3 8.25,8.25 6.482,8.84c-1.571,0.59 -13.161,3.73 -26.126,6.87c-24.161,5.9 -29.072,8.45 -25.34,12.18c1.375,1.38 10.804,0.79 31.823,-2.36c16.5,-2.35 30.447,-3.73 31.037,-3.14c0.589,0.79 -2.751,7.66 -7.269,15.52c-4.714,7.86 -8.643,14.93 -9.036,15.52c-0.393,0.78 0.59,2.36 1.965,3.53c2.357,1.97 4.321,0.99 10.607,-4.51c4.322,-3.93 8.644,-7.07 9.626,-7.07c0.982,0 2.946,5.89 4.518,13.16c3.339,16.89 5.7,22.19 10.02,22.19c5.3,0 6.28,-6.09 4.71,-28.68c-0.78,-11.39 -0.78,-20.43 0.2,-20.43c0.98,0 8.84,3.15 17.48,6.88c17.09,7.46 22.59,8.45 22.59,4.12c0,-3.92 -3.14,-6.67 -18.27,-17.09c-7.26,-4.71 -13.16,-9.23 -13.16,-9.82c0,-0.59 10.02,-3.93 22.2,-7.46c21.8,-6.29 30.84,-10.41 30.84,-13.95c0,-2.95 -12.38,-2.36 -32.02,1.18c-9.43,1.77 -17.87,2.75 -18.46,1.96c-0.59,-0.58 0.78,-5.69 3.14,-11.19c8.84,-21.41 3.34,-23.38 -10.41,-3.54c-5.11,7.66 -10.22,13.16 -11,12.18c-0.79,-0.78 -2.949,-8.64 -4.914,-17.29c-3.928,-18.46 -6.482,-24.55 -10.214,-24.55c-1.965,0 -2.554,5.11 -2.554,22.59z" fill="#F3ABCB"/>
<path d="M84.41,126.6802c1.11,0 1.86,-0.3 2.44,-0.96c0.63,-0.72 1.16,-1.96 1.51,-4.07c0.69,-4.21 0.55,-11.26 -0.24,-22.58v0c-0.39,-5.71 -0.59,-10.84 -0.56,-14.56c0.01,-1.85 0.08,-3.38 0.21,-4.47c0.07,-0.53 0.15,-1.01 0.28,-1.38c0.06,-0.18 0.16,-0.4 0.31,-0.6c0.15,-0.19 0.47,-0.49 0.96,-0.49c0.28,0 0.65,0.1 0.95,0.19c0.35,0.1 0.8,0.24 1.31,0.42c1.03,0.36 2.39,0.87 3.97,1.5c3.18,1.26 7.32,2.98 11.65,4.85v0c8.56,3.74 14.11,5.8 17.48,6.42c1.72,0.31 2.66,0.2 3.13,-0.04c0.33,-0.17 0.58,-0.48 0.58,-1.33c0,-0.83 -0.16,-1.58 -0.6,-2.39c-0.46,-0.84 -1.24,-1.79 -2.54,-3c-2.61,-2.41 -7.1,-5.66 -14.67,-10.87c-3.65,-2.36 -6.96,-4.69 -9.36,-6.49c-1.2,-0.91 -2.19,-1.69 -2.88,-2.29c-0.34,-0.3 -0.63,-0.57 -0.84,-0.8c-0.11,-0.11 -0.21,-0.23 -0.3,-0.36c-0.04,-0.07 -0.09,-0.15 -0.14,-0.25c-0.04,-0.09 -0.1,-0.26 -0.1,-0.47c0,-0.36 0.18,-0.6 0.26,-0.69c0.09,-0.11 0.19,-0.19 0.25,-0.25c0.15,-0.1 0.32,-0.2 0.49,-0.29c0.34,-0.18 0.81,-0.38 1.39,-0.61c1.15,-0.47 2.81,-1.05 4.83,-1.73c4.04,-1.36 9.6,-3.08 15.7,-4.85v0c10.9,-3.14 18.55,-5.73 23.46,-7.96c2.47,-1.11 4.18,-2.11 5.27,-3.01c1.1,-0.92 1.39,-1.58 1.39,-2.01c-0.01,-0.02 -0.04,-0.06 -0.14,-0.13c-0.21,-0.14 -0.62,-0.31 -1.3,-0.46c-1.35,-0.27 -3.41,-0.37 -6.16,-0.26c-5.48,0.22 -13.43,1.24 -23.24,3h0.01c-4.74,0.89 -9.23,1.58 -12.63,1.95c-1.69,0.19 -3.14,0.3 -4.21,0.31c-0.53,0 -1,-0.02 -1.38,-0.07c-0.19,-0.03 -0.39,-0.07 -0.58,-0.14c-0.15,-0.05 -0.4,-0.17 -0.6,-0.4c-0.17,-0.18 -0.25,-0.39 -0.3,-0.54c-0.05,-0.16 -0.07,-0.33 -0.08,-0.48c-0.02,-0.3 0,-0.64 0.04,-1c0.1,-0.71 0.3,-1.63 0.59,-2.67c0.58,-2.09 1.53,-4.78 2.72,-7.57c2.2,-5.32 3.48,-9.37 3.97,-12.15c0.25,-1.4 0.28,-2.4 0.18,-3.05c-0.05,-0.32 -0.13,-0.5 -0.19,-0.6c-0.06,-0.08 -0.09,-0.09 -0.1,-0.09c-0.07,-0.03 -0.41,-0.07 -1.19,0.38c-0.73,0.41 -1.66,1.15 -2.79,2.26c-2.25,2.2 -5.12,5.74 -8.54,10.67v0c-2.57,3.86 -5.16,7.19 -7.21,9.45c-1.03,1.12 -1.95,2.01 -2.69,2.56c-0.37,0.27 -0.76,0.52 -1.14,0.64c-0.35,0.11 -1.01,0.2 -1.5,-0.32c-0.24,-0.25 -0.43,-0.61 -0.56,-0.91c-0.16,-0.35 -0.32,-0.78 -0.5,-1.29c-0.35,-1.01 -0.764,-2.35 -1.209,-3.93c-0.889,-3.17 -1.925,-7.31 -2.91,-11.64l-0.003,-0.02c-1.965,-9.23 -3.569,-15.29 -5.126,-19.02c-0.778,-1.87 -1.513,-3.08 -2.213,-3.81c-0.672,-0.7 -1.283,-0.93 -1.897,-0.93c-0.004,0 0,-0.01 -0.026,0.01c-0.049,0.05 -0.157,0.17 -0.287,0.46c-0.268,0.61 -0.513,1.67 -0.707,3.38c-0.386,3.4 -0.534,8.99 -0.534,17.74v24.21l-1.447,-0.73l-11.786,-5.89c-3.232,-1.57 -6.357,-3.03 -8.816,-4.1c-1.233,-0.54 -2.287,-0.97 -3.098,-1.27c-0.406,-0.15 -0.739,-0.26 -0.995,-0.33c-0.128,-0.03 -0.228,-0.06 -0.303,-0.07c-0.08,-0.02 -0.105,-0.02 -0.092,-0.02c-0.465,0 -0.726,0.08 -0.858,0.16c-0.104,0.05 -0.147,0.11 -0.174,0.2c-0.086,0.29 -0.026,0.97 0.594,2.16c1.191,2.29 3.975,5.58 8.166,9.29l0.001,-0.01c3.05,2.66 5.186,4.79 6.337,6.35c0.555,0.76 0.992,1.53 1.072,2.25c0.044,0.4 -0.013,0.83 -0.273,1.22c-0.247,0.37 -0.606,0.59 -0.96,0.71h0.001c-0.845,0.32 -4.198,1.27 -8.885,2.51c-4.721,1.26 -10.867,2.83 -17.357,4.4h0.001c-12.107,2.96 -19.263,5.05 -22.929,6.83c-0.907,0.44 -1.559,0.85 -2.006,1.21c-0.451,0.37 -0.642,0.67 -0.716,0.87c-0.102,0.28 -0.082,0.73 0.781,1.59c-0.02,-0.02 0.066,0.07 0.44,0.16c0.347,0.09 0.842,0.17 1.512,0.21c1.34,0.08 3.253,0.04 5.815,-0.14c5.116,-0.37 12.698,-1.29 23.201,-2.86h0.006c8.261,-1.18 15.887,-2.12 21.527,-2.69c2.818,-0.28 5.151,-0.47 6.823,-0.56c0.834,-0.04 1.523,-0.05 2.033,-0.04c0.252,0.01 0.487,0.03 0.686,0.06c0.098,0.01 0.214,0.03 0.329,0.07c0.091,0.03 0.302,0.11 0.488,0.29l0.05,0.06l0.042,0.05c0.202,0.27 0.25,0.57 0.263,0.75c0.014,0.2 -0.004,0.4 -0.032,0.58c-0.057,0.36 -0.178,0.79 -0.336,1.25c-0.319,0.93 -0.841,2.15 -1.51,3.56c-1.341,2.83 -3.319,6.54 -5.586,10.48l-0.005,0.01l-0.004,0.01l-1.722,2.89c-1.675,2.83 -3.192,5.46 -4.407,7.57c-1.447,2.52 -2.501,4.38 -2.85,4.96c0.001,0.01 0.002,0.05 0.012,0.09c0.029,0.14 0.107,0.35 0.258,0.61c0.3,0.52 0.805,1.12 1.42,1.65c0.509,0.42 0.911,0.61 1.285,0.67c0.371,0.06 0.836,0.01 1.504,-0.28c1.402,-0.61 3.343,-2.12 6.504,-4.88h0.001c2.183,-1.99 4.372,-3.78 6.148,-5.08c0.886,-0.65 1.684,-1.19 2.337,-1.57c0.325,-0.19 0.631,-0.35 0.905,-0.46c0.243,-0.11 0.574,-0.22 0.909,-0.22c0.596,0 0.994,0.41 1.17,0.61c0.223,0.26 0.428,0.6 0.616,0.96c0.382,0.73 0.787,1.75 1.198,2.96c0.827,2.43 1.72,5.76 2.511,9.42h0.002l0.002,0.01c1.671,8.46 3.077,13.9 4.571,17.22c0.748,1.65 1.478,2.7 2.198,3.32c0.7,0.6 1.42,0.85 2.27,0.85z" stroke="black" stroke-width="2"/>
</g></svg>