<svg viewBox="0 0 84 127.6838" fill="none" xmlns="http://www.w3.org/2000/svg" xmlns:xlink="http://www.w3.org/1999/xlink" x="0" y="0"><defs><filter id="filter1_d_1_914" x="-67" y="-0.00009999999997489795" width="151" height="135.448" filterUnits="userSpaceOnUse" color-interpolation-filters="sRGB">
<feFlood flood-opacity="0" result="BackgroundImageFix"/>
<feColorMatrix in="SourceAlpha" type="matrix" values="0 0 0 0 0 0 0 0 0 0 0 0 0 0 0 0 0 0 127 0" result="hardAlpha"/>
<feOffset dy="7.76457"/>
<feComposite in2="hardAlpha" operator="out"/>
<feColorMatrix type="matrix" values="0 0 0 0 0.745098 0 0 0 0 0.74902 0 0 0 0 0.705882 0 0 0 1 0"/>
<feBlend mode="normal" in2="BackgroundImageFix" result="effect1_dropShadow_1_914"/>
<feBlend mode="normal" in="SourceGraphic" in2="effect1_dropShadow_1_914" result="shape"/>
</filter></defs><g id="Vector_2" filter="url(#filter1_d_1_914)">
<path d="M-2.4321,22.5899v22.59l-11.7862,-5.89c-6.4824,-3.15 -12.5719,-5.9 -13.7506,-5.9c-4.518,0 -1.375,6.09 7.0718,13.56c6.0895,5.3 8.2503,8.25 6.4824,8.84c-1.5715,0.59 -13.1613,3.73 -26.1261,6.87c-24.1617,5.9 -29.0726,8.45 -25.3403,12.18c1.375,1.38 10.804,0.79 31.8227,-2.35c16.5007,-2.36 30.44769,-3.74 31.037,-3.15c0.5893,0.79 -2.75012,7.66 -7.2682,15.52c-4.7144,7.86 -8.6432,14.93 -9.036,15.52c-0.3929,0.78 0.5893,2.36 1.9643,3.54c2.3573,1.96 4.3216,0.98 10.6076,-4.52c4.3216,-3.93 8.64321,-7.07 9.62539,-7.07c0.98218,0 2.94655,5.89 4.51804,13.16c3.33947,16.89 5.69667,22.19 10.01827,22.19c5.3038,0 6.286,-6.09 4.7145,-28.68c-0.7858,-11.39 -0.7858,-20.43 0.1964,-20.43c0.9822,0 8.8397,3.15 17.4829,6.88c17.09,7.46 22.5902,8.45 22.5902,4.13c0,-3.93 -3.143,-6.68 -18.2686,-17.09c-7.2682,-4.72 -13.1613,-9.24 -13.1613,-9.83c0,-0.59 10.0183,-3.93 22.1974,-7.46c21.8044,-6.29 30.8405,-10.41 30.8405,-13.95c0,-2.94 -12.3755,-2.36 -32.0192,1.18c-9.4289,1.77 -17.8757,2.75 -18.465,1.96c-0.5893,-0.58 0.7857,-5.69 3.143,-11.19c8.8396,-21.41 3.3394,-23.38 -10.4112,-3.54c-5.1073,7.66 -10.2147,13.16 -11.0004,12.18c-0.7858,-0.78 -2.9465,-8.64 -4.9109,-17.29c-3.92875,-18.46 -6.48243,-24.55 -10.21472,-24.55c-1.96437,0 -2.55368,5.11 -2.55368,22.59z" fill="#F3ABCB"/>
<path d="M17.4082,126.6799c1.1108,0 1.864,-0.3 2.4443,-0.96c0.6288,-0.72 1.1589,-1.96 1.5039,-4.07c0.6901,-4.21 0.5558,-11.26 -0.2314,-22.58v0c-0.3938,-5.71 -0.5922,-10.84 -0.5674,-14.56c0.0124,-1.85 0.08,-3.38 0.2129,-4.47c0.0654,-0.53 0.1534,-1.01 0.2803,-1.38c0.0616,-0.18 0.1545,-0.4 0.3066,-0.6c0.1531,-0.19 0.4707,-0.49 0.9619,-0.49c0.2852,0 0.6478,0.1 0.9532,0.19c0.352,0.1 0.7938,0.24 1.3066,0.42c1.0281,0.36 2.3869,0.87 3.9756,1.5c3.1801,1.26 7.3159,2.98 11.6435,4.85h0.0039c8.561,3.74 14.104,5.8 17.4825,6.42c1.717,0.31 2.6547,0.2 3.1269,-0.04c0.3304,-0.17 0.58,-0.48 0.5801,-1.33c0,-0.83 -0.16,-1.57 -0.6045,-2.39c-0.4579,-0.84 -1.2375,-1.79 -2.5371,-3c-2.61,-2.41 -7.1047,-5.66 -14.6709,-10.87c-3.6509,-2.36 -6.9605,-4.69 -9.3633,-6.49c-1.1994,-0.91 -2.1842,-1.69 -2.876,-2.29c-0.343,-0.3 -0.6328,-0.57 -0.8437,-0.8c-0.1037,-0.11 -0.209,-0.23 -0.2949,-0.36c-0.0431,-0.07 -0.0943,-0.15 -0.1377,-0.25c-0.0391,-0.09 -0.1016,-0.25 -0.1016,-0.47c0,-0.36 0.1799,-0.6 0.2539,-0.69c0.0902,-0.11 0.1892,-0.19 0.2588,-0.25c0.1429,-0.1 0.3143,-0.2 0.4805,-0.29c0.3422,-0.18 0.8179,-0.38 1.3916,-0.61c1.1557,-0.47 2.8097,-1.05 4.8291,-1.73c4.0438,-1.36 9.607,-3.08 15.7051,-4.85h0.0019c10.8957,-3.14 18.5467,-5.73 23.461,-7.96c2.4621,-1.11 4.1796,-2.11 5.2666,-3.01c1.1039,-0.92 1.3859,-1.58 1.3886,-2.01c-0.0097,-0.02 -0.0434,-0.06 -0.1357,-0.12c-0.2175,-0.15 -0.6278,-0.32 -1.3067,-0.46c-1.345,-0.28 -3.4077,-0.38 -6.1601,-0.27c-5.4798,0.22 -13.4297,1.24 -23.2324,3h0.0009c-4.7309,0.89 -9.2265,1.58 -12.623,1.95c-1.6941,0.19 -3.1378,0.3 -4.209,0.31c-0.5313,0 -1.0062,-0.02 -1.3867,-0.07c-0.1889,-0.03 -0.3891,-0.07 -0.5752,-0.14c-0.1486,-0.05 -0.3982,-0.17 -0.5996,-0.4c-0.1687,-0.18 -0.254,-0.39 -0.2998,-0.54c-0.0511,-0.16 -0.0737,-0.33 -0.084,-0.48c-0.0205,-0.3 0.0016,-0.64 0.0469,-1c0.0915,-0.71 0.2958,-1.63 0.584,-2.67c0.5787,-2.09 1.5277,-4.78 2.7207,-7.57c2.1965,-5.32 3.477,-9.37 3.9707,-12.15c0.2486,-1.4 0.2834,-2.4 0.1777,-3.05c-0.0521,-0.32 -0.1301,-0.5 -0.1914,-0.6c-0.052,-0.08 -0.0854,-0.09 -0.0986,-0.09c-0.0723,-0.03 -0.4118,-0.07 -1.1875,0.38c-0.7314,0.41 -1.664,1.15 -2.7911,2.26c-2.2448,2.2 -5.1228,5.74 -8.54,10.67h0.001c-2.5741,3.86 -5.1586,7.19 -7.2139,9.45c-1.0212,1.12 -1.944,2.01 -2.6904,2.56c-0.3629,0.27 -0.7536,0.52 -1.1377,0.64c-0.3442,0.11 -1.0105,0.2 -1.4981,-0.32c-0.2435,-0.25 -0.4267,-0.61 -0.5605,-0.91c-0.1548,-0.35 -0.3227,-0.78 -0.499,-1.29c-0.3537,-1.01 -0.7646,-2.35 -1.209,-3.93c-0.8898,-3.17 -1.9255,-7.31 -2.91017,-11.64l-0.00293,-0.02c-1.96504,-9.23 -3.56985,-15.29 -5.12598,-19.02c-0.77877,-1.87 -1.51352,-3.08 -2.21387,-3.81c-0.67173,-0.7 -1.28221,-0.93 -1.89648,-0.93c-0.00385,0 0,-0.01 -0.02637,0.01c-0.04884,0.05 -0.15636,0.17 -0.28711,0.46c-0.26718,0.61 -0.5127,1.67 -0.70703,3.38c-0.38551,3.4 -0.5332,8.99 -0.5332,17.74v24.21l-1.44727,-0.73l-11.78609,-5.89c-3.232,-1.57 -6.3571,-3.03 -8.8164,-4.1c-1.2325,-0.54 -2.2869,-0.97 -3.0977,-1.27c-0.4059,-0.15 -0.7387,-0.26 -0.9951,-0.33c-0.1279,-0.03 -0.2281,-0.06 -0.3028,-0.07c-0.08,-0.02 -0.105,-0.02 -0.0918,-0.02c-0.4649,0 -0.7261,0.08 -0.8583,0.16c-0.1042,0.05 -0.1465,0.11 -0.1739,0.2c-0.0862,0.29 -0.0265,0.97 0.5938,2.16c1.191,2.29 3.9756,5.58 8.166,9.29l0.001,-0.01c3.05,2.66 5.1858,4.79 6.3369,6.36c0.5557,0.75 0.9921,1.52 1.0722,2.24c0.0437,0.4 -0.0132,0.83 -0.2724,1.22c-0.2477,0.37 -0.6067,0.59 -0.961,0.71h0.001c-0.8446,0.32 -4.1971,1.27 -8.8847,2.51c-4.7212,1.26 -10.867,2.83 -17.3565,4.41h0.001c-12.1075,2.95 -19.2635,5.04 -22.9297,6.82c-0.9065,0.44 -1.5583,0.85 -2.0059,1.22c-0.4505,0.37 -0.6421,0.66 -0.7158,0.86c-0.1021,0.28 -0.0817,0.73 0.7813,1.6c-0.0201,-0.03 0.0657,0.06 0.4394,0.16c0.3471,0.08 0.8422,0.16 1.5127,0.2c1.3394,0.08 3.2524,0.04 5.8145,-0.14c5.1166,-0.36 12.6978,-1.29 23.2011,-2.86h0.0059c8.2608,-1.18 15.8875,-2.12 21.5273,-2.69c2.81775,-0.28 5.15078,-0.47 6.82329,-0.56c0.83315,-0.04 1.52222,-0.05 2.03223,-0.04c0.25193,0.01 0.48782,0.03 0.68652,0.06c0.0983,0.01 0.21378,0.03 0.3291,0.07c0.09098,0.03 0.30206,0.11 0.48731,0.3l0.05078,0.05l0.04199,0.05c0.20181,0.27 0.24965,0.57 0.2627,0.75c0.01417,0.2 -0.0039,0.4 -0.03223,0.58c-0.05693,0.36 -0.17803,0.79 -0.33594,1.25c-0.31878,0.93 -0.84109,2.15 -1.50976,3.56c-1.34125,2.83 -3.31931,6.54 -5.58594,10.48l-0.00488,0.01l-0.00391,0.01l-1.72266,2.89c-1.6751,2.83 -3.1919,5.46 -4.4062,7.57c-1.4473,2.52 -2.5017,4.38 -2.8506,4.96c0.0008,0.01 0.0021,0.05 0.0117,0.09c0.0298,0.14 0.1078,0.35 0.2588,0.61c0.2993,0.52 0.8051,1.12 1.4199,1.65c0.5083,0.42 0.9104,0.61 1.2852,0.67c0.3703,0.06 0.8356,0.01 1.5039,-0.28c1.4014,-0.61 3.3426,-2.12 6.50387,-4.88h0.00097c2.18261,-1.99 4.37136,-3.78 6.14746,-5.08c0.8862,-0.65 1.68443,-1.19 2.33692,-1.57c0.32516,-0.19 0.63145,-0.35 0.90527,-0.46c0.24265,-0.11 0.57415,-0.22 0.90918,-0.22c0.59611,0 0.99407,0.41 1.16992,0.61c0.22331,0.26 0.42801,0.6 0.61621,0.96c0.38138,0.73 0.78697,1.75 1.19825,2.96c0.82635,2.43 1.71982,5.76 2.51074,9.42h0.00195l0.00195,0.01c1.67121,8.46 3.07731,13.9 4.57131,17.22c0.7443,1.65 1.475,2.7 2.2002,3.32c0.6947,0.6 1.4192,0.85 2.2656,0.85z" stroke="black" stroke-width="2"/>
</g></svg>