<svg viewBox="0 0 84 127.6838" fill="none" xmlns="http://www.w3.org/2000/svg" xmlns:xlink="http://www.w3.org/1999/xlink" x="0" y="0"><defs><filter id="filter0_d_1_914" x="0" y="-0.00009999999997489795" width="151" height="135.448" filterUnits="userSpaceOnUse" color-interpolation-filters="sRGB">
<feFlood flood-opacity="0" result="BackgroundImageFix"/>
<feColorMatrix in="SourceAlpha" type="matrix" values="0 0 0 0 0 0 0 0 0 0 0 0 0 0 0 0 0 0 127 0" result="hardAlpha"/>
<feOffset dy="7.76457"/>
<feComposite in2="hardAlpha" operator="out"/>
<feColorMatrix type="matrix" values="0 0 0 0 0.745098 0 0 0 0 0.74902 0 0 0 0 0.705882 0 0 0 1 0"/>
<feBlend mode="normal" in2="BackgroundImageFix" result="effect1_dropShadow_1_914"/>
<feBlend mode="normal" in="SourceGraphic" in2="effect1_dropShadow_1_914" result="shape"/>
</filter></defs><g id="Vector" filter="url(#filter0_d_1_914)">
<path d="M64.57,22.5899v22.59l-11.79,-5.89c-6.48,-3.15 -12.57,-5.9 -13.75,-5.9c-4.52,0 -1.37,6.09 7.07,13.56c6.09,5.3 8.25,8.25 6.49,8.84c-1.58,0.59 -13.17,3.73 -26.13,6.87c-24.16,5.9 -29.07,8.45 -25.34,12.18c1.37,1.38 10.8,0.79 31.82,-2.35c16.5,-2.36 30.45,-3.74 31.04,-3.15c0.59,0.79 -2.75,7.66 -7.27,15.52c-4.71,7.86 -8.64,14.93 -9.04,15.52c-0.39,0.78 0.59,2.36 1.97,3.54c2.36,1.96 4.32,0.98 10.61,-4.52c4.32,-3.93 8.64,-7.07 9.62,-7.07c0.98,0 2.95,5.89 4.52,13.16c3.34,16.89 5.7,22.19 10.02,22.19c5.3,0 6.28,-6.09 4.71,-28.68c-0.78,-11.39 -0.78,-20.43 0.2,-20.43c0.98,0 8.84,3.15 17.48,6.88c17.09,7.46 22.59,8.45 22.59,4.13c0,-3.93 -3.14,-6.68 -18.27,-17.09c-7.26,-4.72 -13.16,-9.24 -13.16,-9.83c0,-0.59 10.02,-3.93 22.2,-7.46c21.8,-6.29 30.84,-10.41 30.84,-13.95c0,-2.94 -12.38,-2.36 -32.02,1.18c-9.43,1.77 -17.87,2.75 -18.46,1.96c-0.59,-0.58 0.78,-5.69 3.14,-11.19c8.84,-21.41 3.34,-23.38 -10.41,-3.54c-5.11,7.66 -10.22,13.16 -11,12.18c-0.79,-0.78 -2.95,-8.64 -4.91,-17.29c-3.93,-18.46 -6.49,-24.55 -10.22,-24.55c-1.96,0 -2.55,5.11 -2.55,22.59z" fill="#F3ABCB"/>
<path d="M84.41,126.6799c1.11,0 1.86,-0.3 2.44,-0.96c0.63,-0.72 1.16,-1.96 1.51,-4.07c0.69,-4.21 0.55,-11.26 -0.24,-22.58v0c-0.39,-5.71 -0.59,-10.84 -0.56,-14.56c0.01,-1.85 0.08,-3.38 0.21,-4.47c0.07,-0.53 0.15,-1.01 0.28,-1.38c0.06,-0.18 0.16,-0.4 0.31,-0.6c0.15,-0.19 0.47,-0.49 0.96,-0.49c0.28,0 0.65,0.1 0.95,0.19c0.35,0.1 0.8,0.24 1.31,0.42c1.03,0.36 2.39,0.87 3.97,1.5c3.18,1.26 7.32,2.98 11.65,4.85v0c8.56,3.74 14.11,5.8 17.48,6.42c1.72,0.31 2.66,0.2 3.13,-0.04c0.33,-0.17 0.58,-0.48 0.58,-1.33c0,-0.83 -0.16,-1.57 -0.6,-2.39c-0.46,-0.84 -1.24,-1.79 -2.54,-3c-2.61,-2.41 -7.1,-5.66 -14.67,-10.87c-3.65,-2.36 -6.96,-4.69 -9.36,-6.49c-1.2,-0.91 -2.19,-1.69 -2.88,-2.29c-0.34,-0.3 -0.63,-0.57 -0.84,-0.8c-0.11,-0.11 -0.21,-0.23 -0.3,-0.36c-0.04,-0.07 -0.09,-0.15 -0.14,-0.25c-0.04,-0.09 -0.1,-0.25 -0.1,-0.47c0,-0.36 0.18,-0.6 0.26,-0.69c0.09,-0.11 0.19,-0.19 0.25,-0.25c0.15,-0.1 0.32,-0.2 0.49,-0.29c0.34,-0.18 0.81,-0.38 1.39,-0.61c1.15,-0.47 2.81,-1.05 4.83,-1.73c4.04,-1.36 9.6,-3.08 15.7,-4.85v0c10.9,-3.14 18.55,-5.73 23.46,-7.96c2.47,-1.11 4.18,-2.11 5.27,-3.01c1.1,-0.92 1.39,-1.58 1.39,-2.01c-0.01,-0.02 -0.04,-0.06 -0.14,-0.12c-0.21,-0.15 -0.62,-0.32 -1.3,-0.46c-1.35,-0.28 -3.41,-0.38 -6.16,-0.27c-5.48,0.22 -13.43,1.24 -23.24,3h0.01c-4.74,0.89 -9.23,1.58 -12.63,1.95c-1.69,0.19 -3.14,0.3 -4.21,0.31c-0.53,0 -1,-0.02 -1.38,-0.07c-0.19,-0.03 -0.39,-0.07 -0.58,-0.14c-0.15,-0.05 -0.4,-0.17 -0.6,-0.4c-0.17,-0.18 -0.25,-0.39 -0.3,-0.54c-0.05,-0.16 -0.07,-0.33 -0.08,-0.48c-0.02,-0.3 0,-0.64 0.04,-1c0.1,-0.71 0.3,-1.63 0.59,-2.67c0.58,-2.09 1.53,-4.78 2.72,-7.57c2.2,-5.32 3.48,-9.37 3.97,-12.15c0.25,-1.4 0.28,-2.4 0.18,-3.05c-0.05,-0.32 -0.13,-0.5 -0.19,-0.6c-0.06,-0.08 -0.09,-0.09 -0.1,-0.09c-0.07,-0.03 -0.41,-0.07 -1.19,0.38c-0.73,0.41 -1.66,1.15 -2.79,2.26c-2.25,2.2 -5.12,5.74 -8.54,10.67v0c-2.57,3.86 -5.16,7.19 -7.21,9.45c-1.03,1.12 -1.95,2.01 -2.69,2.56c-0.37,0.27 -0.76,0.52 -1.14,0.64c-0.35,0.11 -1.01,0.2 -1.5,-0.32c-0.24,-0.25 -0.43,-0.61 -0.56,-0.91c-0.16,-0.35 -0.32,-0.78 -0.5,-1.29c-0.35,-1.01 -0.76,-2.35 -1.21,-3.93c-0.89,-3.17 -1.92,-7.31 -2.91,-11.64v-0.02c-1.97,-9.23 -3.57,-15.29 -5.13,-19.02c-0.78,-1.87 -1.51,-3.08 -2.21,-3.81c-0.67,-0.7 -1.28,-0.93 -1.9,-0.93c0,0 0,-0.01 -0.02,0.01c-0.05,0.05 -0.16,0.17 -0.29,0.46c-0.27,0.61 -0.51,1.67 -0.71,3.38c-0.38,3.4 -0.53,8.99 -0.53,17.74v24.21l-1.45,-0.73l-11.79,-5.89c-3.23,-1.57 -6.35,-3.03 -8.81,-4.1c-1.23,-0.54 -2.29,-0.97 -3.1,-1.27c-0.4,-0.15 -0.74,-0.26 -0.99,-0.33c-0.13,-0.03 -0.23,-0.06 -0.31,-0.07c-0.08,-0.02 -0.1,-0.02 -0.09,-0.02c-0.46,0 -0.72,0.08 -0.86,0.16c-0.1,0.05 -0.14,0.11 -0.17,0.2c-0.09,0.29 -0.03,0.97 0.59,2.16c1.19,2.29 3.98,5.58 8.17,9.29v-0.01c3.05,2.66 5.19,4.79 6.34,6.36c0.55,0.75 0.99,1.52 1.07,2.24c0.04,0.4 -0.01,0.83 -0.27,1.22c-0.25,0.37 -0.61,0.59 -0.96,0.71v0c-0.85,0.32 -4.2,1.27 -8.89,2.51c-4.72,1.26 -10.87,2.83 -17.35,4.41v0c-12.11,2.95 -19.27,5.04 -22.93,6.82c-0.91,0.44 -1.56,0.85 -2.01,1.22c-0.45,0.37 -0.64,0.66 -0.72,0.86c-0.1,0.28 -0.08,0.73 0.79,1.6c-0.02,-0.03 0.06,0.06 0.44,0.16c0.34,0.08 0.84,0.16 1.51,0.2c1.34,0.08 3.25,0.04 5.81,-0.14c5.12,-0.36 12.7,-1.29 23.2,-2.86h0.01c8.26,-1.18 15.89,-2.12 21.53,-2.69c2.81,-0.28 5.15,-0.47 6.82,-0.56c0.83,-0.04 1.52,-0.05 2.03,-0.04c0.25,0.01 0.49,0.03 0.69,0.06c0.1,0.01 0.21,0.03 0.33,0.07c0.09,0.03 0.3,0.11 0.49,0.3l0.05,0.05l0.04,0.05c0.2,0.27 0.25,0.57 0.26,0.75c0.02,0.2 0,0.4 -0.03,0.58c-0.06,0.36 -0.18,0.79 -0.34,1.25c-0.32,0.93 -0.84,2.15 -1.51,3.56c-1.34,2.83 -3.32,6.54 -5.58,10.48l-0.01,0.01v0.01l-1.72,2.89c-1.68,2.83 -3.2,5.46 -4.41,7.57c-1.45,2.52 -2.5,4.38 -2.85,4.96c0,0.01 0,0.05 0.01,0.09c0.03,0.14 0.11,0.35 0.26,0.61c0.3,0.52 0.8,1.12 1.42,1.65c0.51,0.42 0.91,0.61 1.28,0.67c0.37,0.06 0.84,0.01 1.51,-0.28c1.4,-0.61 3.34,-2.12 6.5,-4.88v0c2.19,-1.99 4.37,-3.78 6.15,-5.08c0.89,-0.65 1.69,-1.19 2.34,-1.57c0.32,-0.19 0.63,-0.35 0.9,-0.46c0.25,-0.11 0.58,-0.22 0.91,-0.22c0.6,0 1,0.41 1.17,0.61c0.23,0.26 0.43,0.6 0.62,0.96c0.38,0.73 0.79,1.75 1.2,2.96c0.82,2.43 1.72,5.76 2.51,9.42v0v0.01c1.67,8.46 3.08,13.9 4.57,17.22c0.75,1.65 1.48,2.7 2.2,3.32c0.7,0.6 1.42,0.85 2.27,0.85z" stroke="black" stroke-width="2"/>
</g></svg>