<svg viewBox="0 0 97 80.6838" fill="none" xmlns="http://www.w3.org/2000/svg" xmlns:xlink="http://www.w3.org/1999/xlink" x="0" y="0"><defs><filter id="filter2_d_1_914" x="0" y="-47" width="151" height="135.448" filterUnits="userSpaceOnUse" color-interpolation-filters="sRGB">
<feFlood flood-opacity="0" result="BackgroundImageFix"/>
<feColorMatrix in="SourceAlpha" type="matrix" values="0 0 0 0 0 0 0 0 0 0 0 0 0 0 0 0 0 0 127 0" result="hardAlpha"/>
<feOffset dy="7.76457"/>
<feComposite in2="hardAlpha" operator="out"/>
<feColorMatrix type="matrix" values="0 0 0 0 0.745098 0 0 0 0 0.74902 0 0 0 0 0.705882 0 0 0 1 0"/>
<feBlend mode="normal" in2="BackgroundImageFix" result="effect1_dropShadow_1_914"/>
<feBlend mode="normal" in="SourceGraphic" in2="effect1_dropShadow_1_914" result="shape"/>
</filter></defs><g id="Vector_3" filter="url(#filter2_d_1_914)">
<path d="M64.57,-24.4097v22.59017l-11.79,-5.8931c-6.48,-3.14297 -12.57,-5.89307 -13.75,-5.89307c-4.52,0 -1.37,6.0895 7.07,13.55409c6.09,5.30379 8.25,8.25034 6.49,8.83965c-1.58,0.58931 -13.17,3.73226 -26.13,6.87526c-24.16,5.8931 -29.07,8.4468 -25.34,12.1791c1.37,1.375 10.8,0.7857 31.82,-2.3572c16.5,-2.3573 30.45,-3.7323 31.04,-3.143c0.59,0.7857 -2.75,7.661 -7.27,15.5185c-4.71,7.8574 -8.64,14.9291 -9.04,15.5185c-0.39,0.7857 0.59,2.3572 1.97,3.5358c2.36,1.9644 4.32,0.9822 10.61,-4.518c4.32,-3.9288 8.64,-7.0718 9.62,-7.0718c0.98,0 2.95,5.8931 4.52,13.1613c3.34,16.8935 5.7,22.1973 10.02,22.1973c5.3,0 6.28,-6.0895 4.71,-28.6797c-0.78,-11.3933 -0.78,-20.4294 0.2,-20.4294c0.98,0 8.84,3.143 17.48,6.8753c17.09,7.4646 22.59,8.4467 22.59,4.1251c0,-3.9287 -3.14,-6.6788 -18.27,-17.0899c-7.26,-4.7145 -13.16,-9.2326 -13.16,-9.8219c0,-0.5893 10.02,-3.9287 22.2,-7.46457c21.8,-6.28596 30.84,-10.41114 30.84,-13.947c0,-2.94655 -12.38,-2.35724 -32.02,1.17862c-9.43,1.76793 -17.87,2.75012 -18.46,1.96437c-0.59,-0.58931 0.78,-5.69666 3.14,-11.19692c8.84,-21.4116 3.34,-23.3759 -10.41,-3.5358c-5.11,7.66101 -10.22,13.16123 -11,12.17904c-0.79,-0.78574 -2.95,-8.64324 -4.91,-17.28644c-3.93,-18.465 -6.49,-24.5546 -10.22,-24.5546c-1.96,0 -2.55,5.1074 -2.55,22.5903z" fill="#F3ABCB"/>
<path d="M84.41,79.6838c1.11,0 1.86,-0.3058 2.44,-0.9648c0.63,-0.7142 1.16,-1.9596 1.51,-4.0654c0.69,-4.2117 0.55,-11.2637 -0.24,-22.5801v-0.001c-0.39,-5.7103 -0.59,-10.8449 -0.56,-14.5625c0.01,-1.8525 0.08,-3.3837 0.21,-4.4668c0.07,-0.5324 0.15,-1.0132 0.28,-1.3828c0.06,-0.1795 0.16,-0.4016 0.31,-0.5967c0.15,-0.1963 0.47,-0.4892 0.96,-0.4892c0.28,0.0001 0.65,0.0942 0.95,0.1816c0.35,0.1008 0.8,0.2446 1.31,0.4238c1.03,0.3594 2.39,0.8749 3.97,1.503c3.18,1.2572 7.32,2.9799 11.65,4.8486v0.0019c8.56,3.7393 14.11,5.8008 17.48,6.4151c1.72,0.3122 2.66,0.2046 3.13,-0.0361c0.33,-0.1686 0.58,-0.4803 0.58,-1.337c0,-0.8281 -0.16,-1.5702 -0.6,-2.3847c-0.46,-0.8392 -1.24,-1.7919 -2.54,-2.9961c-2.61,-2.4184 -7.1,-5.6619 -14.67,-10.8701c-3.65,-2.3682 -6.96,-4.6898 -9.36,-6.4981c-1.2,-0.9026 -2.19,-1.6866 -2.88,-2.289c-0.34,-0.2988 -0.63,-0.5685 -0.84,-0.7959c-0.11,-0.1119 -0.21,-0.236 -0.3,-0.3633c-0.04,-0.0638 -0.09,-0.148 -0.14,-0.2471c-0.04,-0.0893 -0.1,-0.256 -0.1,-0.4678c0,-0.3599 0.18,-0.6044 0.26,-0.6953c0.09,-0.1106 0.19,-0.1915 0.25,-0.2441c0.15,-0.108 0.32,-0.2067 0.49,-0.293c0.34,-0.1777 0.81,-0.3851 1.39,-0.6142c1.15,-0.4617 2.81,-1.0513 4.83,-1.7286c4.04,-1.3561 9.6,-3.07918 15.7,-4.84957v-0.00098c10.9,-3.14111 18.55,-5.72697 23.46,-7.9541c2.47,-1.11587 4.18,-2.11682 5.27,-3.01563c1.1,-0.91286 1.39,-1.57624 1.39,-2.00976c-0.01,-0.01435 -0.04,-0.05958 -0.14,-0.12305c-0.21,-0.1494 -0.62,-0.31936 -1.3,-0.45996c-1.35,-0.27857 -3.41,-0.37524 -6.16,-0.26563c-5.48,0.21823 -13.43,1.23958 -23.24,3.00391h0.01c-4.74,0.88705 -9.23,1.57929 -12.63,1.95117c-1.69,0.18548 -3.14,0.29404 -4.21,0.30371c-0.53,0.00479 -1,-0.01445 -1.38,-0.07031c-0.19,-0.02773 -0.39,-0.0692 -0.58,-0.13769c-0.15,-0.0547 -0.4,-0.16603 -0.6,-0.39747c-0.17,-0.18407 -0.25,-0.38813 -0.3,-0.53808c-0.05,-0.16724 -0.07,-0.33609 -0.08,-0.48633c-0.02,-0.29938 0,-0.64129 0.04,-0.99512c0.1,-0.7151 0.3,-1.63282 0.59,-2.67285c0.58,-2.08841 1.53,-4.78286 2.72,-7.56636c2.2,-5.3219 3.48,-9.3779 3.97,-12.1563c0.25,-1.3996 0.28,-2.4005 0.18,-3.0488c-0.05,-0.3193 -0.13,-0.5025 -0.19,-0.5977c-0.06,-0.0806 -0.09,-0.0911 -0.1,-0.0957c-0.07,-0.0248 -0.41,-0.0618 -1.19,0.3799c-0.73,0.4164 -1.66,1.1542 -2.79,2.2617c-2.25,2.2062 -5.12,5.7406 -8.54,10.6699v0c-2.57,3.8612 -5.16,7.1934 -7.21,9.44926c-1.03,1.12088 -1.95,2.01174 -2.69,2.56641c-0.37,0.26963 -0.76,0.51284 -1.14,0.63476c-0.35,0.10915 -1.01,0.20223 -1.5,-0.31933c-0.24,-0.24355 -0.43,-0.61277 -0.56,-0.91016c-0.16,-0.34399 -0.32,-0.77941 -0.5,-1.2832c-0.35,-1.01051 -0.76,-2.35947 -1.21,-3.93944c-0.89,-3.1637 -1.92,-7.3061 -2.91,-11.6387v-0.0137c-1.97,-9.2356 -3.57,-15.2906 -5.13,-19.0254c-0.78,-1.869 -1.51,-3.0757 -2.21,-3.8046c-0.67,-0.6992 -1.28,-0.9325 -1.9,-0.9327c0,0 0,-0.0078 -0.02,0.0147c-0.05,0.0417 -0.16,0.1633 -0.29,0.46c-0.27,0.6062 -0.51,1.6644 -0.71,3.3769c-0.38,3.3973 -0.53,8.9895 -0.53,17.7383v24.208l-1.45,-0.72363l-11.79,-5.89258c-3.23,-1.56691 -6.35,-3.03112 -8.81,-4.10258c-1.23,-0.5369 -2.29,-0.9705 -3.1,-1.2675c-0.4,-0.1487 -0.74,-0.2587 -0.99,-0.3301c-0.13,-0.0356 -0.23,-0.0592 -0.31,-0.0733c-0.08,-0.015 -0.1,-0.0146 -0.09,-0.0146c-0.46,0 -0.72,0.0808 -0.86,0.1533c-0.1,0.0572 -0.14,0.1159 -0.17,0.2061c-0.09,0.2845 -0.03,0.9643 0.59,2.1572c1.19,2.29051 3.98,5.5813 8.17,9.28516v-0.00098c3.05,2.6565 5.19,4.78097 6.34,6.35059c0.55,0.75784 0.99,1.52799 1.07,2.24804c0.04,0.39323 -0.01,0.82881 -0.27,1.21778c-0.25,0.37147 -0.61,0.5899 -0.96,0.71386v0c-0.85,0.31675 -4.2,1.26465 -8.89,2.50975c-4.72,1.2541 -10.87,2.8272 -17.35,4.4004v0c-12.11,2.9531 -19.27,5.0417 -22.93,6.8272c-0.91,0.4414 -1.56,0.8453 -2.01,1.2128c-0.45,0.37 -0.64,0.6609 -0.72,0.8624c-0.1,0.2799 -0.08,0.7346 0.79,1.5976c-0.02,-0.02 0.06,0.0652 0.44,0.1602c0.34,0.0881 0.84,0.1606 1.51,0.2031c1.34,0.0848 3.25,0.0453 5.81,-0.1377c5.12,-0.3655 12.7,-1.2937 23.2,-2.8643l0.01,-0.0009c8.26,-1.1801 15.89,-2.1152 21.53,-2.6817c2.81,-0.283 5.15,-0.4754 6.82,-0.5595c0.83,-0.0419 1.52,-0.0574 2.03,-0.042c0.25,0.0076 0.49,0.0235 0.69,0.0546c0.1,0.0155 0.21,0.0381 0.33,0.0762c0.09,0.0301 0.3,0.1068 0.49,0.292l0.05,0.0508l0.04,0.0566c0.2,0.2691 0.25,0.5633 0.26,0.7461c0.02,0.1987 0,0.3987 -0.03,0.5791c-0.06,0.3624 -0.18,0.7892 -0.34,1.25c-0.32,0.9303 -0.84,2.1479 -1.51,3.5596c-1.34,2.8315 -3.32,6.5405 -5.58,10.4824l-0.01,0.0078v0.0078l-1.72,2.8926c-1.68,2.8343 -3.2,5.4593 -4.41,7.5752c-1.45,2.5217 -2.5,4.3798 -2.85,4.9531c0,0.0186 0,0.0495 0.01,0.0948c0.03,0.141 0.11,0.3477 0.26,0.6093c0.3,0.5189 0.8,1.1177 1.42,1.6465c0.51,0.4236 0.91,0.6168 1.28,0.6768c0.37,0.0592 0.84,0.0082 1.51,-0.2842c1.4,-0.6131 3.34,-2.1163 6.5,-4.8818v0c2.19,-1.9842 4.37,-3.7754 6.15,-5.0762c0.89,-0.649 1.69,-1.187 2.34,-1.5674c0.32,-0.1895 0.63,-0.3506 0.9,-0.4668c0.25,-0.1029 0.58,-0.2217 0.91,-0.2217c0.6,0.0002 1,0.4108 1.17,0.6153c0.23,0.2597 0.43,0.5956 0.62,0.957c0.38,0.7324 0.79,1.752 1.2,2.9609c0.82,2.4291 1.72,5.759 2.51,9.417v0.0078v0.0088c1.67,8.4544 3.08,13.8979 4.57,17.2178c0.75,1.6541 1.48,2.6975 2.2,3.3242c0.7,0.6003 1.42,0.8496 2.27,0.8496z" stroke="black" stroke-width="2"/>
</g></svg>