<svg viewBox="0 0 76.4864 89.1474" fill="none" xmlns="http://www.w3.org/2000/svg" xmlns:xlink="http://www.w3.org/1999/xlink" x="0" y="0"><g id="Frame 13">
<path id="Vector_10" d="M60.2826,13.9779c-0.587,-0.9 -5.842,-1.66 -11.863,-1.83c-9.364,-0.25 -10.945,0.11 -11.5,2.02c-1.587,4.77 0.614,5.84 11.56,5.72c11.869,-0.3 14.859,-1.68 11.803,-5.91z" fill="black"/>
<path id="Vector_11" d="M42.8006,42.7179c-11.537,-7.59 -15.077,-8.72 -14.824,-4.46c0.103,1.73 4.043,5.11 11.829,10.25c6.533,4.29 12.211,7.69 12.877,7.65c0.532,-0.03 0.977,-1.53 0.875,-3.26c-0.143,-2.39 -2.83,-4.9 -10.757,-10.18z" fill="black"/>
<path id="Vector_12" d="M28.4896,66.0479c-6.058,-9.79 -13.243,-18.31 -14.651,-17.29c-2.434,1.75 -0.991,5.8 5.238,13.98c3.346,4.61 6.974,9.47 8.001,11.01c1.027,1.54 2.304,2.8 2.969,2.76c2.795,-0.16 2.135,-4.53 -1.557,-10.46z" fill="black"/>
</g></svg>